<?xml version="1.0" encoding="utf-8"?>
<!-- Generator: Adobe Illustrator 27.5.0, SVG Export Plug-In . SVG Version: 6.00 Build 0)  -->
<svg version="1.1" xmlns="http://www.w3.org/2000/svg" xmlns:xlink="http://www.w3.org/1999/xlink" x="0px" y="0px"
	 viewBox="0 0 750 500" style="enable-background:new 0 0 750 500;" xml:space="preserve">
<g id="BACKGROUND">
	<rect style="fill:#FFFFFF;" width="750" height="500"/>
</g>
<g id="OBJECTS_1_">
	<path style="fill:#E3E4ED;" d="M75.279,420.105c0,0-11.746-122.175,69.56-107.69C226.145,326.9,238.043,81.751,383.799,74.93
		c145.756-6.821,134.05,202.266,207.328,207.287c73.277,5.021,84.184,137.887,84.184,137.887H75.279z"/>
	<g>
		<g>
			<g>
				<path style="fill:#FF8F4A;" d="M161.911,199.814l-21.078,48.107c-31.146-14.359-51-43.466-54.874-75.36l52.195-5.796
					C140.057,181.319,149.231,193.591,161.911,199.814z"/>
			</g>
		</g>
		<g>
			<g>
				<path style="fill:#58D9F1;" d="M268.417,199.475c-20.942,47.797-76.243,69.865-124.214,49.923l21.078-48.107
					c4.835,1.883,10.088,2.913,15.583,2.913c23.787,0,43.068-19.291,43.068-43.078c0-16.486-9.262-30.816-22.874-38.049
					l21.097-48.146C268.446,97.076,289.155,152.115,268.417,199.475z"/>
			</g>
		</g>
		<g>
			<path style="fill:#67ACD6;" d="M218.805,73.406l-21.058,48.078c-5.185-2.214-10.893-3.437-16.884-3.437
				c-23.786,0-43.078,19.291-43.078,43.078c0,0.66,0.019,1.32,0.049,1.971l-52.253,5.816c-1.262-15.291,1.146-31.097,7.728-46.136
				C114.435,74.551,170.542,52.522,218.805,73.406z"/>
		</g>
	</g>
	<g>
		<g>
			<path style="fill:#FF8F4A;" d="M559.343,78.386c-30.203,0-54.775,24.572-54.775,54.775c0,30.203,24.572,54.775,54.775,54.775
				c30.203,0,54.775-24.572,54.775-54.775C614.118,102.958,589.546,78.386,559.343,78.386z M560.501,159.816L560.501,159.816
				c-14.721,0.64-27.174-10.776-27.814-25.497v0c-0.64-14.721,10.776-27.174,25.497-27.814l0,0
				c14.721-0.64,27.174,10.776,27.814,25.497l0,0C586.638,146.724,575.223,159.176,560.501,159.816z"/>
			<path style="fill:#FF8F4A;" d="M640.959,120.436c-0.789-1.445-2.153-1.564-5.829-1.852c-4.543-0.356-9.1-0.551-13.633-0.997
				c-0.828-0.081-1.955-0.853-2.291-1.599c-2.165-4.813-4.053-9.752-6.251-14.55c-0.64-1.396-0.733-2.265,0.261-3.488
				c3.502-4.308,6.888-8.711,10.313-13.082c0.555-0.709,1.086-1.437,2.027-2.687c-6.018-5.647-11.97-11.231-18.071-16.956
				c-5.104,4.4-9.808,8.326-14.344,12.437c-1.599,1.45-2.718,1.803-4.86,0.773c-4.378-2.106-9.047-3.6-13.541-5.478
				c-0.689-0.288-1.447-1.228-1.555-1.958c-0.825-5.572-1.661-11.153-2.145-16.761c-0.232-2.692-1.372-3.565-3.85-3.473
				c-0.953,0.035-1.918-0.274-2.877-0.426c-4.311,0.096-8.622,0.192-12.934,0.288c-0.462,0.153-0.914,0.385-1.388,0.446
				c-4.966,0.636-4.17,0.229-4.553,4.891c-0.466,5.681-0.837,11.37-1.194,16.305c-6.503,2.923-12.581,5.654-18.858,8.476
				c-5.361-4.199-10.962-8.586-16.6-13.002c-6.72,5.101-12.108,11.18-16.904,18.009c4.338,5.012,8.556,9.909,12.809,14.776
				c0.763,0.873,1.042,1.506,0.484,2.78c-2.185,4.986-4.246,10.035-6.083,15.158c-0.53,1.477-1.192,1.858-2.568,2.02
				c-5.679,0.67-11.343,1.473-17.02,2.167c-1.41,0.172-2.129,0.626-2.342,2.221c-0.954,7.156-0.364,14.223,0.836,21.285
				c0.238,1.397,1.08,1.583,2.279,1.656c5.545,0.337,11.082,0.809,16.628,1.108c1.598,0.086,2.323,0.529,2.947,2.178
				c2.158,5.695,4.647,11.264,7.2,17.333c-3.816,4.873-8.147,10.402-12.477,15.929c5.168,6.865,11.044,12.6,18.035,17.28
				c5.446-4.76,10.744-9.391,15.543-13.585c5.6,1.985,10.758,3.965,16.023,5.602c1.989,0.618,2.774,1.49,2.974,3.534
				c0.532,5.444,1.277,10.868,1.991,16.293c0.141,1.072,0.021,2.481,1.79,2.428c7.194-0.215,14.389-0.422,21.583-0.639
				c1.529-0.046,2.048-0.863,2.132-2.375c0.313-5.628,0.872-11.244,1.09-16.875c0.084-2.172,1.12-2.841,2.916-3.562
				c4.436-1.781,8.86-3.662,13.064-5.92c1.812-0.973,2.732-0.878,4.238,0.37c4.837,4.013,9.833,7.835,14.664,11.65
				c4.433-2.514,14.367-13.144,17.187-18.316c-4.224-4.796-8.445-9.689-12.8-14.462c-1.089-1.194-1.016-2.014-0.435-3.433
				c1.875-4.579,3.426-9.291,5.255-13.891c0.307-0.774,1.313-1.674,2.101-1.787c5.004-0.718,10.034-1.261,15.062-1.804
				c2.811-0.303,3.946-0.415,4.484-1.487L640.959,120.436z M594.636,169.985c-9.836,9.427-22.755,14.46-36.376,14.171
				c-13.621-0.289-26.315-5.865-35.742-15.701c-9.427-9.836-14.46-22.755-14.171-36.376c0.289-13.621,5.865-26.315,15.701-35.742
				c9.836-9.427,22.755-14.46,36.376-14.171c13.621,0.289,26.315,5.865,35.742,15.701c9.427,9.836,14.46,22.755,14.171,36.376
				C610.048,147.864,604.472,160.557,594.636,169.985z"/>
		</g>
	</g>
	<g>
		<path style="fill:#67ACD6;" d="M586.178,224.665c-17.692,0-32.085,14.393-32.085,32.085c0,17.692,14.393,32.085,32.085,32.085
			c17.692,0,32.085-14.393,32.085-32.085C618.263,239.059,603.87,224.665,586.178,224.665z M586.857,272.365L586.857,272.365
			c-8.623,0.375-15.918-6.312-16.293-14.935v0c-0.375-8.623,6.312-15.918,14.935-16.293l0,0c8.623-0.375,15.918,6.312,16.293,14.935
			l0,0C602.167,264.695,595.48,271.99,586.857,272.365z"/>
		<path style="fill:#67ACD6;" d="M633.987,249.297c-0.462-0.846-1.261-0.916-3.414-1.085c-2.661-0.208-5.33-0.323-7.985-0.584
			c-0.485-0.048-1.145-0.499-1.342-0.937c-1.268-2.82-2.374-5.713-3.661-8.523c-0.375-0.818-0.43-1.327,0.153-2.043
			c2.051-2.524,4.035-5.103,6.041-7.663c0.325-0.415,0.636-0.842,1.188-1.574c-3.526-3.308-7.012-6.579-10.586-9.932
			c-2.99,2.578-5.745,4.877-8.402,7.285c-0.937,0.849-1.592,1.056-2.847,0.453c-2.565-1.233-5.299-2.109-7.932-3.209
			c-0.404-0.169-0.848-0.719-0.911-1.147c-0.483-3.264-0.973-6.533-1.256-9.818c-0.136-1.577-0.804-2.088-2.255-2.035
			c-0.558,0.02-1.123-0.16-1.685-0.249c-2.525,0.056-5.051,0.112-7.576,0.168c-0.271,0.089-0.535,0.226-0.813,0.261
			c-2.909,0.372-2.443,0.134-2.667,2.865c-0.273,3.328-0.49,6.66-0.7,9.551c-3.81,1.712-7.37,3.312-11.047,4.965
			c-3.14-2.459-6.421-5.03-9.724-7.616c-3.936,2.988-7.092,6.549-9.902,10.549c2.541,2.936,5.012,5.805,7.503,8.655
			c0.447,0.512,0.61,0.882,0.284,1.628c-1.28,2.92-2.487,5.878-3.563,8.879c-0.31,0.865-0.698,1.088-1.504,1.183
			c-3.327,0.393-6.644,0.863-9.97,1.269c-0.826,0.101-1.247,0.367-1.372,1.301c-0.559,4.192-0.213,8.331,0.49,12.468
			c0.139,0.819,0.633,0.928,1.335,0.97c3.248,0.198,6.491,0.474,9.74,0.649c0.936,0.05,1.36,0.31,1.726,1.276
			c1.264,3.336,2.722,6.598,4.218,10.153c-2.236,2.854-4.773,6.093-7.309,9.331c3.027,4.021,6.469,7.381,10.564,10.122
			c3.19-2.788,6.294-5.501,9.104-7.958c3.28,1.163,6.302,2.322,9.386,3.281c1.165,0.362,1.625,0.873,1.742,2.07
			c0.312,3.189,0.748,6.366,1.166,9.544c0.083,0.628,0.013,1.453,1.048,1.422c4.214-0.126,8.428-0.247,12.642-0.374
			c0.896-0.027,1.199-0.506,1.249-1.391c0.183-3.297,0.511-6.586,0.638-9.884c0.049-1.272,0.656-1.664,1.708-2.086
			c2.598-1.043,5.19-2.145,7.652-3.467c1.062-0.57,1.6-0.514,2.482,0.217c2.833,2.35,5.76,4.59,8.589,6.824
			c2.597-1.473,8.416-7.699,10.068-10.729c-2.474-2.809-4.947-5.676-7.498-8.471c-0.638-0.699-0.595-1.18-0.255-2.011
			c1.098-2.682,2.007-5.442,3.078-8.137c0.18-0.453,0.769-0.98,1.23-1.047c2.931-0.421,5.878-0.739,8.823-1.057
			c1.646-0.178,2.312-0.243,2.627-0.871L633.987,249.297z M606.852,278.321c-5.762,5.522-13.329,8.47-21.308,8.301
			c-7.979-0.169-15.414-3.436-20.937-9.197c-5.522-5.762-8.47-13.329-8.301-21.308c0.169-7.979,3.436-15.414,9.197-20.936
			c5.762-5.522,13.329-8.47,21.308-8.301c7.979,0.169,15.414,3.436,20.936,9.197c5.522,5.762,8.47,13.329,8.301,21.308
			C615.88,265.363,612.614,272.799,606.852,278.321z"/>
	</g>
	<path style="fill:#FFFFFF;" d="M559.079,168.105v195.341c0,13.874-11.252,25.117-25.117,25.117H216.038
		c-13.864,0-25.117-11.243-25.117-25.117V168.105c0-13.874,11.253-25.117,25.117-25.117h317.924
		C547.826,142.989,559.079,154.232,559.079,168.105z"/>
	<g>
		<g>
			<rect x="241.383" y="208.907" style="fill:#E3E4ED;" width="26.495" height="150.437"/>
			<rect x="241.383" y="321.735" style="fill:#A9E6F1;" width="26.495" height="37.609"/>
			<rect x="281.506" y="208.907" style="fill:#E3E4ED;" width="26.495" height="150.437"/>
			<rect x="281.506" y="303.095" style="fill:#58D9F1;" width="26.495" height="56.249"/>
			<rect x="321.629" y="208.907" style="fill:#E3E4ED;" width="26.495" height="150.437"/>
			<rect x="321.629" y="265.486" style="fill:#67ACD6;" width="26.495" height="93.858"/>
			<rect x="361.753" y="208.907" style="fill:#E3E4ED;" width="26.495" height="150.437"/>
			<rect x="361.753" y="284.127" style="fill:#58D9F1;" width="26.495" height="75.218"/>
		</g>
		<g>
			<rect x="401.876" y="208.907" style="fill:#E3E4ED;" width="26.495" height="150.437"/>
			<rect x="401.876" y="246.518" style="fill:#67ACD6;" width="26.495" height="112.827"/>
			<rect x="441.999" y="208.909" style="fill:#FF8F4A;" width="26.495" height="150.436"/>
			<rect x="482.122" y="208.907" style="fill:#E3E4ED;" width="26.495" height="150.437"/>
			<rect x="482.122" y="235.632" style="fill:#67ACD6;" width="26.495" height="123.713"/>
		</g>
	</g>
	<path style="fill:#67ACD6;" d="M559.079,168.105v11.156H190.921v-11.156c0-13.874,11.253-25.117,25.117-25.117h317.924
		C547.826,142.989,559.079,154.232,559.079,168.105z"/>
	<g>
		<g>
			
				<line style="fill:none;stroke:#FFFFFF;stroke-width:2;stroke-miterlimit:10;" x1="523.868" y1="155.922" x2="534.39" y2="166.443"/>
			
				<line style="fill:none;stroke:#FFFFFF;stroke-width:2;stroke-miterlimit:10;" x1="534.39" y1="155.922" x2="523.868" y2="166.443"/>
		</g>
		
			<rect x="501.611" y="155.922" style="fill:none;stroke:#FFFFFF;stroke-width:2;stroke-miterlimit:10;" width="10.521" height="10.521"/>
		
			<line style="fill:none;stroke:#FFFFFF;stroke-width:2;stroke-miterlimit:10;" x1="490.685" y1="166.443" x2="477.128" y2="166.443"/>
	</g>
	<g>
		<g id="POLYLINE_33_">
			<path style="fill:#82542C;" d="M179.684,390.524c-0.097,5.043-3.225,11.823-4.168,15.063c-0.737,2.532-1.577,5.03-2.358,7.548
				c-1.576,5.082,0.409,20.745-6.737,21.812c-10.339,1.543-3.66-11.652-2.938-15.685c0.493-2.759,0.885-5.535,1.203-8.32
				c0.306-2.679,0.527-5.363,0.664-8.056c0.142-2.776,0.226-5.542,0.899-8.252c1.161-4.679,3.666-12.332,10.244-9.884
				C178.932,385.658,179.736,387.846,179.684,390.524z"/>
		</g>
		<g id="POLYLINE_32_">
			<path style="fill:#3D535C;" d="M169.408,431.807c0.129-0.374-0.018-0.755-0.004-1.136c0.01-0.269,0.122-0.503,0.266-0.726
				c0.2-0.308,0.446-0.584,0.65-0.889c0.174-0.259,0.3-0.543,0.454-0.813c0.081-0.142,0.191-0.353,0.377-0.373
				c0.134-0.015,0.266,0.085,0.364,0.16c0.57,0.432,1.022,1.014,1.583,1.463c1.372,1.096,2.946,1.966,4.519,2.737
				c1.405,0.688,2.866,1.185,4.429,1.339c0.926,0.091,1.857,0.101,2.785,0.149c0.522,0.028,1.094,0.047,1.586,0.248
				c0.63,0.258,0.759,0.859,0.808,1.483c0.033,0.427,0.033,0.856,0.072,1.283c0.025,0.273,0.069,0.555,0.025,0.829
				c-0.051,0.32-0.229,0.578-0.457,0.803c-1.074,1.058-2.774,1.568-4.219,1.813c-1.549,0.263-3.14,0.235-4.705,0.167
				c-2.354-0.101-4.709-0.203-7.063-0.305c-1.609-0.069-3.227-0.109-4.835-0.036c-1.795,0.082-3.602,0.352-5.398,0.16
				c-0.941-0.1-2.033-0.316-2.656-1.1c-0.506-0.637-0.597-1.489-0.553-2.275c0.049-0.87,0.245-1.725,0.422-2.576
				c0.184-0.883,0.365-1.771,0.608-2.64c0.143-0.51,0.293-1.106,0.629-1.531c0.082-0.104,0.202-0.239,0.345-0.258
				c0.124-0.016,0.206,0.045,0.291,0.131c0.355,0.359,0.584,0.79,0.981,1.123c1.161,0.976,2.681,1.667,4.146,2.034
				c1.262,0.316,2.664,0.328,3.789-0.413C168.965,432.452,169.281,432.172,169.408,431.807z"/>
		</g>
		<g id="POLYLINE_502_">
			<path style="fill:#966C49;" d="M176.647,267.932c-0.127-0.718-0.291-1.392-0.503-1.988c-0.858-2.408-5.184-3.353-7.367-2.576
				c-2.08,0.741-3.529,2.713-4.202,4.816c-0.673,2.103-0.687,4.352-0.695,6.56c-1.106-1.625-3.335-2.385-5.204-1.774
				c-0.371,0.121,0.961,6.515,1.204,7.246c0.862,2.594-1.445,4.97-0.328,7.168c0.779,1.533,2.481,1.842,3.974,2.291
				c1.758,0.529,2.951,1.732,4.56,2.286c0.59-1.257,1.045-2.571,1.477-3.889c0.223-0.68,0.443-1.36,0.661-2.041
				c0.155-0.484-0.112-1.13,0.611-1.055c1.02,0.105,3.541,0.872,4.183-0.411c1.654-2.398,1.971-6.891,2.017-9.701
				C177.069,272.883,177.045,270.194,176.647,267.932z"/>
		</g>
		<g id="POLYLINE_495_">
			<path style="fill:#966C49;" d="M164.275,390.39c0.916,4.96-0.79,12.23-1.065,15.593c-0.215,2.628-0.537,5.244-0.797,7.867
				c-0.526,5.294,4.558,20.242-2.229,22.719c-9.82,3.584-5.921-10.682-6.022-14.778c-0.07-2.802-0.243-5.6-0.489-8.392
				c-0.528-5.988-0.09-12.002,0.361-17.98c0.347-4.596-0.661-11.078,5.957-10.047C162.563,385.773,163.789,387.756,164.275,390.39z"
				/>
		</g>
		<g id="POLYLINE_496_">
			<path style="fill:#4A6570;" d="M162.857,432.278c0.125-0.375-0.026-0.755-0.017-1.136c0.007-0.269,0.116-0.504,0.258-0.729
				c0.197-0.311,0.439-0.589,0.64-0.896c0.171-0.261,0.293-0.546,0.445-0.818c0.079-0.143,0.187-0.355,0.372-0.377
				c0.133-0.016,0.267,0.082,0.366,0.156c0.575,0.425,1.033,1.003,1.6,1.445c1.385,1.08,2.969,1.932,4.55,2.685
				c1.413,0.672,2.88,1.152,4.445,1.288c0.927,0.081,1.858,0.079,2.786,0.117c0.523,0.022,1.095,0.035,1.589,0.23
				c0.633,0.251,0.769,0.85,0.825,1.474c0.038,0.426,0.043,0.855,0.087,1.282c0.029,0.273,0.076,0.554,0.035,0.829
				c-0.048,0.32-0.222,0.581-0.448,0.808c-1.062,1.07-2.756,1.6-4.198,1.862c-1.546,0.281-3.137,0.271-4.703,0.221
				c-2.355-0.074-4.711-0.149-7.066-0.224c-1.609-0.051-3.228-0.072-4.835,0.019c-1.794,0.103-3.598,0.393-5.396,0.222
				c-0.942-0.089-2.036-0.293-2.668-1.07c-0.513-0.631-0.614-1.482-0.579-2.268c0.039-0.87,0.226-1.728,0.393-2.58
				c0.174-0.885,0.344-1.775,0.578-2.646c0.137-0.512,0.28-1.109,0.612-1.538c0.081-0.105,0.199-0.241,0.342-0.262
				c0.123-0.018,0.206,0.043,0.292,0.128c0.359,0.355,0.593,0.783,0.993,1.112c1.173,0.962,2.7,1.636,4.169,1.986
				c1.266,0.301,2.668,0.297,3.784-0.457C162.421,432.928,162.733,432.645,162.857,432.278z"/>
		</g>
		<g id="POLYLINE_31_">
			<path style="fill:#F06A35;" d="M169.137,342.758c5.705,2.623,7.179,9.287,9.081,14.669c2.243,6.346,3.8,13.041,4.851,19.699
				c0.764,4.842,2.401,8.438,1.87,13.479c-0.507,4.816-1.926,9.484-3.495,14.047c-0.712,2.07-9.045,27.769-7.167,27.811
				c-3.898-0.086-7.796-0.173-11.693-0.259c0.953-11.603,1.905-23.205,2.858-34.807c0.444-5.411,1.63-10.705-0.258-15.878
				c-1.733-4.745-4.085-9.264-6.972-13.409c-2.981-4.279-6.71-8.458-7.426-13.822c-0.721-5.4,4.042-8.901,8.631-11.07
				C162.445,341.785,166.093,341.358,169.137,342.758z"/>
		</g>
		<g id="POLYLINE_499_">
			<path style="fill:#FF8F4A;" d="M172.765,345.137c4.21,4.659,2.94,11.364,2.569,17.06c-0.438,6.717-1.644,13.483-3.302,20.017
				c-4.36,17.317-5.441,36.426-6.084,54.212c-4.662-1.233-9.496-1.813-14.317-1.715c-1.177-14.04-0.823-28.208,1.046-42.173
				c1.66-12.404,2.147-24.534-2.268-36.585c-1.003-2.737-2.189-5.89-0.724-8.41c0.917-1.576,2.66-2.454,4.33-3.186
				c3.068-1.344,6.288-2.505,9.635-2.628C166.997,341.607,170.519,342.651,172.765,345.137z"/>
		</g>
		<path style="fill:#F06A35;" d="M169.582,365.616c4.328-2.231,4.877-9.783,2.761-13.891c-2.267-4.397-6.794-3.227-10.946-4.287
			c0.593,3.752,0.399,18.607,5.126,18.807C167.7,366.295,168.717,366.062,169.582,365.616z"/>
		<g id="POLYLINE_41_">
			<path style="fill:#966C49;" d="M172.83,298.4c-1.377-0.705-2.718-1.48-4.017-2.32c-1.188-0.768-2.724-1.607-3.909-0.835
				c-0.755,0.491-1.019,1.453-1.226,2.329c-0.411,1.743-0.814,3.621-0.145,5.282c0.977,2.424,3.792,3.445,6.296,4.194
				c4.107,1.229,8.308,3.495,12.486,1.823c2.951-0.938,5.783-2.209,8.573-3.545c6.759-3.237,16.935-11.591,22.097-5.809
				c-0.34-2.665-0.002-5.55-2.702-6.966c-2.056-1.078-4.791-0.618-6.516,0.868c-2.54,2.191-5.927,3.162-9.101,4.018
				c-2.647,0.714-5.303,1.397-7.977,2.005c-1.86,0.423-4.539,1.648-6.392,1.67c-0.988,0.011-1.945-0.315-2.868-0.667
				C175.86,299.849,174.324,299.165,172.83,298.4z"/>
		</g>
		<path style="fill:#2B719C;" d="M174.967,309.919l4.719-10.368l-9.41-7.018c0,0-5.774,5.166-5.556,5.742
			C164.939,298.851,174.967,309.919,174.967,309.919z"/>
		<g id="POLYLINE_505_">
			<path style="fill:#4591BF;" d="M159.19,286.103c-0.482,0.428-1.04,0.795-1.492,1.252c-0.403,0.408-0.711,0.867-1.166,1.225
				c-0.607,0.479-1.246,0.896-1.742,1.499c-0.475,0.579-0.804,1.245-1.106,1.926c-0.369,0.829-0.775,1.566-1.296,2.309
				c-0.989,1.412-1.485,3.016-1.974,4.653c-0.504,1.686-0.811,3.319-0.813,5.084c-0.002,1.734,0.169,3.459,0.371,5.179
				c0.228,1.929,0.484,3.855,0.57,5.797c0.078,1.777,0.035,3.55-0.087,5.324c-0.131,1.911-0.347,3.758,0.053,5.65
				c0.371,1.755,0.864,3.455,1.059,5.245c0.064,0.587,0.144,1.194,0.036,1.78c-0.142,0.772-0.494,1.521-0.766,2.252
				c-0.602,1.613-0.989,3.277-1.256,4.977c-0.298,1.892-0.457,3.793-0.596,5.701c-0.059,0.812-0.091,1.632-0.299,2.423
				c-0.131,0.499-0.437,1.051-0.419,1.579c0.019,0.55,0.843,0.569,1.23,0.62c1.896,0.251,3.779,0.517,5.668,0.82
				c0.876,0.14,1.751,0.293,2.629,0.415c0.417,0.058,0.836,0.086,1.254,0.134c0.194,0.022,0.395,0.06,0.591,0.036
				c0.65-0.083,0.875-0.938,1.047-1.448c0.287-0.851,0.521-1.733,0.892-2.553c0.074-0.163,0.195-0.521,0.391-0.592
				c0.134-0.048,0.211,0.045,0.283,0.151c0.303,0.447,0.364,1.037,0.593,1.521c0.305,0.646,0.951,0.409,1.588,0.433l6.628,0.618
				c0.55,0.08,1.1,0.16,1.647,0.253c0.969,0.164,1.986,0.488,2.975,0.471c0.198-0.003,0.428-0.022,0.535-0.214
				c0.168-0.301-0.004-0.828-0.066-1.119c-0.244-1.143-0.423-2.261-0.373-3.434c0.048-1.125,0.29-2.226,0.503-3.327
				c0.208-1.076,0.382-2.158,0.496-3.249c0.248-2.369,0.273-4.764,0.269-7.145c-0.004-2.285-0.08-4.569-0.188-6.851
				c-0.118-2.487-0.178-4.973-0.273-7.46c-0.092-2.406-0.251-4.808-0.527-7.201c-0.267-2.315-0.63-4.629-1.151-6.901
				c-0.266-1.159-0.623-2.28-1.006-3.404c-0.369-1.08-0.594-2.17-0.838-3.282c-0.169-0.773-0.39-1.538-0.835-2.201
				c-0.299-0.446-0.673-0.832-1.014-1.246c-0.334-0.406-0.627-0.845-0.938-1.269L159.19,286.103z"/>
		</g>
		<path style="fill:#2B719C;" d="M165.111,341.375c-2.796-5.595-4.995-11.487-6.56-17.543c-0.691-2.674-0.837-5.535-1.474-8.151
			c-0.308-1.265-2.449-4.724-2.189-5.762c-3.221,12.852-2.933,24.871,5.082,35.819c1.15,1.571,3.033,3.202,4.814,2.414
			c1.165-0.515,1.705-1.933,1.603-3.203C166.285,343.68,165.68,342.514,165.111,341.375z"/>
		<path style="fill:#2B719C;" d="M162.119,327.974c-0.47-6.454-0.941-12.908-1.411-19.362c-0.165-2.267-0.318-4.621,0.502-6.741
			c3.992-10.315,7.72,4.451,7.653,8.323c-0.057,3.302-0.683,6.595-1.864,9.68C166.342,321.589,162.024,326.671,162.119,327.974z"/>
		<g id="POLYLINE_509_">
			<path style="fill:#4591BF;" d="M158.669,286.005c0.153-1.345,0.481-2.776,1.309-2.845c1-0.083,2.102,0.267,2.935,0.808
				c0.724,0.47,1.36,1.09,2.005,1.658c0.619,0.544,1.227,1.102,1.8,1.695c0.982,1.016,1.799,2.175,2.761,3.207
				c1.255,1.346,1.393,1.393,0.821,3.21c-3.93-1.898-7.859-3.796-11.789-5.695C158.548,287.617,158.576,286.827,158.669,286.005z"/>
		</g>
		<g id="POLYLINE_507_">
			<path style="fill:#966C49;" d="M164.092,316.189c0.308-2.541,0.814-5.12-0.229-7.574c-0.78-1.835-2.465-3.369-4.45-3.556
				c-1.212-0.114-2.434,0.272-3.468,0.913c-3.177,1.97-3.963,5.922-3.526,9.381c0.574,4.542,1.309,9.306,2.697,13.675
				c1.101,3.464,2.594,6.789,4.161,10.063c3.799,7.935,10.797,16.748,6.819,25.938c3.128-0.399,6.514-0.003,8.177-3.172
				c1.266-2.413,0.726-5.624-1.019-7.649c-2.572-2.982-3.711-6.958-4.717-10.683c-1.17-4.335-2.262-8.683-3.156-13.085
				c-0.431-2.122-1.534-4.255-1.972-6.45C162.882,321.348,163.775,318.807,164.092,316.189z"/>
		</g>
		<g id="POLYLINE_508_">
			<path style="fill:#4591BF;" d="M167.199,301.13c-0.151,0.376-0.304,0.751-0.453,1.127c-0.214,0.538-0.36,1.124-0.655,1.626
				c-0.175,0.298-0.437,0.533-0.609,0.834c-0.596,1.04-0.69,2.418-0.721,3.587c-0.02,0.784,0.031,1.566,0.029,2.35
				c0,0.229,0.037,0.608-0.115,0.808c-0.072,0.095-0.152,0.112-0.267,0.107c-0.497-0.022-1.034-0.373-1.482-0.552
				c-1.375-0.549-2.832-0.836-4.293-1.049c-1.506-0.219-3.043-0.409-4.567-0.411c-0.565-0.001-1.149,0.021-1.696,0.176
				c-0.231,0.065-0.566,0.299-0.814,0.251c-0.445-0.086-0.13-1.257-0.097-1.5c0.211-1.549,0.326-3.082,0.269-4.646
				c-0.029-0.806-0.127-1.61-0.121-2.417c0.005-0.728,0.117-1.445,0.264-2.157c0.893-4.326,5.412-7.516,9.805-7.052
				C166.069,292.676,168.848,297.032,167.199,301.13z"/>
		</g>
		<g id="POLYLINE_503_">
			<path style="fill:#4D3426;" d="M172.317,261.94c-1.034-0.6-2.128-1.023-3.327-1.12c-2.36-0.192-4.975,0.275-7.047,1.439
				c-2.032,1.142-3.979,3.013-4.564,5.329c-0.568,2.25-0.772,4.982-0.409,7.277c0.413,2.61,2.008,4.761,3.082,7.111
				c0.594-0.145,0.864-0.818,1.044-1.403c0.157-0.51,0.315-1.053,0.18-1.57c-0.118-0.45-0.441-0.812-0.675-1.214
				c-0.504-0.869-0.845-3.513,0.726-3.614c1.427-0.092,1.636,2.558,1.884,3.542c0.16,0.635,0.729,1.271,1.366,1.124
				c0.501-0.116,0.788-0.676,0.79-1.191c0.002-0.514-0.206-1.002-0.364-1.492c-0.455-1.409-1.241-3.9,0.049-4.994
				c0.656-0.556,1.508-0.959,1.86-1.743c0.644-1.434-0.129-3.223,1.04-4.525c1.623-1.808,3.371-0.582,5.145,0.019
				c0.883,0.299,2.153-0.019,2.226-0.948C175.434,262.566,173.191,262.448,172.317,261.94z"/>
		</g>
	</g>
	<g>
		<g>
			<g id="POLYLINE_146_">
				<path style="fill:#FF8F4A;" d="M562.792,275.266c1.77-0.312,3.341-1.14,5.186-1.239c1.84-0.099,3.763,0.327,5.196,1.485
					c1.433,1.158,2.276,3.12,1.819,4.905c1.24,0.286,1.526,0.651,1.968,1.868c0.886,2.442-0.031,5.13-0.942,7.563
					c-0.761,2.031-1.518,4.064-2.283,6.094c-0.325,0.862-0.423,1.128-1.326,1.339c-0.926,0.215-1.962,0.304-2.888,0.054
					c-0.973-0.263-1.825-0.754-2.12-1.732c-0.362-1.204-0.875-2.374-2.409-2.203c-1.29,0.143-2.253,1.42-3.548,1.508
					c-1.022,0.07-1.964-0.657-2.46-1.553c-0.495-0.896-0.634-1.94-0.764-2.956c-0.197-1.544-0.394-3.088-0.592-4.632
					c-0.228-1.781,0.23-4.37-1.398-5.601c-0.554-0.419-1.212-0.704-1.695-1.203c-0.483-0.499-0.735-1.338-0.303-1.881
					c0.929,0.669,2.207,0.164,3.26-0.284c0.172-0.073,0.346-0.145,0.524-0.217C559.597,275.944,561.142,275.557,562.792,275.266z"/>
			</g>
			<path style="fill:#F5906E;" d="M552.521,292.924c0.156,0.36,0.426,0.67,0.775,0.851c0.698,0.362,1.637,0.167,2.133-0.441
				c0.118-0.646,1.277-5.549-0.62-5.072c-0.517,0.132-2.23,2.97-2.382,3.516C552.322,292.155,552.365,292.564,552.521,292.924z"/>
			<g id="POLYLINE_145_">
				<path style="fill:#FFB980;" d="M573.215,300.883c-1.711,0.428-3.421,0.856-5.131,1.284c-1.351,0.338-2.622,0.81-3.951,1.163
					c-0.744,0.198-0.718,0.017-1.3-0.475c-0.973-0.822-2.112-1.243-3.346-1.518c-1.114-0.248-2.946,0.031-3.925-0.565
					c-1.38-0.843-1.412-2.396-1.549-3.859c-0.468-4.99-0.767-10.566,1.754-15.091c0.262-0.471,0.611-1.483,1.274-1.417
					c0.373,0.037,0.683,0.291,0.968,0.535c0.884,0.755,2.167,1.943,1.536,3.223c-0.523,1.06-1.109,1.712-0.466,3.002
					c0.546,1.096,1.2,1.975,1.048,3.246c-0.098,0.822-0.761,2.031,0.066,2.659c0.48,0.365,1.43,0.887,1.964,0.36
					c0.339-0.335,0.443-0.922,0.552-1.358c0.187-0.754,0.316-1.579,0.697-2.269c0.365-0.661,1.335-1.193,2.093-1.155
					c0.666,0.033,0.945,0.813,1.085,1.359c0.206,0.807-0.127,1.508-0.043,2.29c0.087,0.815,0.514,1.765,1.07,2.363
					c0.916,0.985,2.348,1.237,3.654,1.559c0.427,0.106,0.866,0.232,1.203,0.515c0.592,0.497,0.328,0.983,0.319,1.606
					C572.778,299.153,573.081,300.08,573.215,300.883z"/>
			</g>
			<polygon style="fill:#F5906E;" points="555.562,300.772 565.511,300.326 564.745,303.003 			"/>
			<g id="POLYLINE_143_">
				<path style="fill:#FFFFFF;" d="M578.286,302.699c-0.349,0.194-0.991,0.073-1.367,0.097c-0.931,0.059-1.86,0.159-2.788,0.252
					c-1.726,0.173-3.469,0.35-5.154,0.781c-1.456,0.372-2.736,1.174-4.17,1.581c-0.624,0.177-1.542,0.25-2.037-0.271
					c-0.487-0.513,0.176-1.177,0.542-1.534c1.127-1.1,2.52-1.951,3.857-2.767c1.423-0.868,2.898-1.725,4.498-2.224
					c0.947-0.294,2.036-0.55,3.034-0.388c0.957,0.155,1.545,1.059,2.125,1.749c0.468,0.558,0.941,1.129,1.32,1.753
					c0.13,0.214,0.338,0.515,0.308,0.781C578.435,302.614,578.372,302.652,578.286,302.699z"/>
			</g>
			<g id="POLYLINE_1_">
				<path style="fill:#3D535C;" d="M578.022,454.15c1.124,4.099-4.546,6.307-7.652,7.132c-1.981,0.526-6.066-0.181-7.207,1.883
					c-0.297,0.538-0.333,1.209-0.107,1.781c0.524,1.33,1.892,1.308,3.075,1.553c5.112,1.058,12.571,1.932,17.162-1.211
					c0.205,0.643,0.225,1.335,0.093,1.997h5.868c0.093,0,0.185-0.005,0.278-0.008c0.046-2.184,0.335-4.207,0.08-6.407
					c-0.201-1.738-0.619-3.469-0.727-5.216C585.264,455.151,581.642,454.648,578.022,454.15z"/>
			</g>
			<g id="POLYLINE_152_">
				<path style="fill:#2B719C;" d="M589.242,379.47c-0.167-2.379,0.983-5.544,0.146-7.681c-1.197-3.054-5.658-3.756-8.452-3.964
					c-3.14-0.234-6.424-0.103-9.233,1.318c-5.172,2.616-7.432,9.082-6.845,14.849c0.682,6.692,5.064,11.759,6.535,18.054
					c0.693,2.967,1.849,5.826,2.43,8.817c0.187,0.962,0.262,2.012,0.735,2.891c0.418,0.778,1.177,1.276,1.749,1.928
					c1.253,1.426,0.783,3.533,1.293,5.246c0.391,1.312,0.832,2.573,1.039,3.932c0.223,1.462,0.323,2.944,0.4,4.421
					c0.16,3.119,0.204,6.245,0.422,9.36c0.209,2.974,0.616,5.907-0.421,8.771c-0.243,0.671-0.522,1.336-0.684,2.033
					c-0.288,1.238-0.143,2.523-0.426,3.732c-0.423,1.807-1.472,3.658-2.167,5.383c3.874,1.031,7.842,1.71,11.839,2.026
					c0.86,0.068,1.817,0.089,2.473-0.471c1.466-1.252,0.169-4.457,0.44-6.159c0.17-1.066,0.601-2.066,0.682-3.147
					c0.118-1.557-0.015-3.144-0.07-4.7c-0.183-5.157,1.246-10.024,1.331-15.195c0.15-9.139-1.225-18.248-1.351-27.426
					c-0.098-7.114-1.031-14.075-1.638-21.116C589.388,381.406,589.31,380.439,589.242,379.47z"/>
			</g>
			<g id="POLYLINE_151_">
				<path style="fill:#4A6570;" d="M551.336,452.793c1.283,4.679-5.188,7.198-8.733,8.14c-2.261,0.601-6.924-0.206-8.225,2.149
					c-0.339,0.614-0.379,1.38-0.122,2.033c0.599,1.518,2.16,1.493,3.509,1.772c5.834,1.207,14.348,2.206,19.588-1.382
					c0.234,0.734,0.257,1.523,0.106,2.279h6.698c0.106,0,0.212-0.006,0.317-0.009c0.052-2.493,0.382-4.802,0.092-7.312
					c-0.23-1.984-0.706-3.96-0.83-5.954C559.602,453.935,555.468,453.361,551.336,452.793z"/>
			</g>
			<g id="POLYLINE_150_">
				<path style="fill:#4591BF;" d="M577.99,384.54c2.23-4.931,4.245-9.905,5.233-15.161c-6.188-1.179-12.464-1.897-18.759-2.146
					c-2.401-0.095-4.934-0.091-7.032,1.08c-3.517,1.964-2.621,6.063-3.066,9.433c-2.973,22.478-6.412,45.002-6.208,67.737
					c0.021,2.306,0.065,4.614,0.174,6.918c0.094,1.994-0.468,3.722-0.982,5.674c5.581,1.533,11.503,0.703,16.883,2.433
					c-0.327-0.107,0.766-6.985,0.781-7.824c0.054-3.023-0.477-5.971-0.157-9.017c1.325-12.619,1.833-25.417,4.689-37.821
					C571.263,398.381,574.841,391.504,577.99,384.54z"/>
			</g>
			<polygon style="fill:#2B719C;" points="554.365,377.746 553.681,385.164 578.457,380.781 589.242,379.47 585.126,358.486 			"/>
			<g id="POLYLINE_149_">
				<path style="fill:#4591BF;" d="M553.856,326.146c-0.462,5.434,0.063,10.861,0.734,16.253c1.254,10.08,0.987,21.58-0.521,31.471
					c-0.318,2.083-0.088,4.586,1.684,5.725c1.251,0.804,2.865,0.654,4.341,0.475c5.605-0.679,11.21-1.358,16.815-2.037
					c4.042-0.49,8.276-1.051,11.584-3.426c6.498-4.666,2.463-10.871,1.711-17.046c-0.566-4.647-0.799-9.329-1.503-13.961
					c-1.188-7.817,0.231-15.791-1.239-23.648c-0.577-3.088-0.707-6.764-1.882-9.686c-1.891-4.702-5.494-9.792-10.788-9.49
					c-4.97,0.283-9.779,2.717-13.194,6.296C556.768,312.133,554.449,319.176,553.856,326.146z"/>
			</g>
			<path style="fill:#FFB980;" d="M557.691,359.126c-0.88,0.799-1.996,1.096-2.643,2.092c-0.743,1.146-1,3.274-1.431,4.6
				c-0.224,0.69-0.334,1.658,0.333,1.944c0.647,0.278,1.272-0.425,1.604-1.046c0.332-0.621,0.845-1.368,1.534-1.219
				c-0.582,0.496-1.2,1.055-1.333,1.808c-0.623,3.527,3.908-1.042,4.444-1.38c1.521-0.961,3.258-1.3,4.495-2.739
				c2.038-2.371,2.048-6.715-1.92-6.715c-0.993-0.018-1.968,0.241-2.927,0.498C559.846,356.97,557.692,359.126,557.691,359.126z"/>
			<polygon style="fill:#2B719C;" points="554.657,338.104 569.16,317.984 562.598,343.258 555.777,349.352 			"/>
			<path style="fill:#FFFFFF;" d="M555.717,357.078c-1.695,2.779,1.77,6.118,4.479,5.531c2.065-0.448,4.751-2.592,5.179-4.781
				c0.427-2.186-2.128-4.513-3.554-5.951c-1.931,1.253-3.679,3.021-5.452,4.518c-0.49,0.414-1.009,0.874-1.148,1.501
				c-0.139,0.627,0.345,1.411,0.978,1.306"/>
			<g id="POLYLINE_144_">
				<path style="fill:#4591BF;" d="M556.587,312.023c-4.226,7.514-11.228,14.339-12.705,23.131
					c-0.839,4.996,0.854,8.682,3.524,12.777c2.624,4.026,4.384,8.612,7.081,12.702c3.685-0.452,7.997-1.344,9.51-4.735
					c1.086-2.434,0.25-5.283-0.891-7.693c-1.916-4.043-5.839-8.542-4.904-13.185c0.772-3.833,3.903-7.221,6.204-10.222
					c4.298-5.605,11.097-13.647,3.226-19.426c-3.574-2.624-6.889,0.452-9.158,3.641C557.72,310.073,557.082,311.144,556.587,312.023
					z"/>
			</g>
		</g>
	</g>
	<g>
		<g id="POLYLINE_21_">
			<path style="fill:#FFB980;" d="M226.309,455.563c0.312,0.413,0.628,0.855,0.981,1.311c0.811,1.047,2.028,1.956,3.327,2.285
				c1.466,0.371,1.668,0.621,2.792,1.725c-4.596,1.189-9.394,1.592-14.123,1.188c-1.91-0.163-3.786-0.631-3.349-2.959
				c0.188-1.002,0.377-2.005,0.565-3.007c0.143-0.759,0.285-1.518,0.428-2.278c0.177-0.943,4.473-0.826,5.194-0.793
				C224.276,453.137,225.266,454.182,226.309,455.563z"/>
		</g>
		<g id="POLYLINE_20_">
			<path style="fill:#3D535C;" d="M223.483,464.583c3.139,0,6.228-0.017,9.356-0.258c0.886-0.938,0.258-2.597-0.844-3.269
				s-2.463-0.685-3.744-0.842c-2.224-0.273-4.385-1.042-6.282-2.234c-1.076-0.676-2.101-1.502-3.336-1.802
				c-3.576-0.868-3.392,3.08-3.278,5.467c0.034,0.709,0.042,1.654,0.572,2.212c0.627,0.66,1.811,0.672,2.643,0.708
				C220.204,464.637,221.848,464.587,223.483,464.583z"/>
		</g>
		<g id="POLYLINE_19_">
			<path style="fill:#67ACD6;" d="M215.913,453.222c0.147,0.932-0.194,1.824-0.214,2.752c-0.007,0.293,0.005,0.661,0.256,0.86
				c0.421,0.335,1.235,0.131,1.69,0.085c1.525-0.152,3.057,0.055,4.584-0.07c1.388-0.114,2.844-0.471,4.066-1.157
				c1.829-1.026-0.843-15.417-0.854-18.281c-0.021-5.59-0.123-11.863,0.639-17.66c0.866-6.583,3.942-12.388,5.696-18.679
				c2.005-7.189,2.659-15.037,3.931-22.395c0.422-2.439,0.842-4.952,0.307-7.369c-1.302-5.874-10.817-7.082-15.04-3.428
				c-2.19,1.895-2.522,5.112-2.7,8.002c-0.664,10.793-0.615,21.714-2.014,32.407C214.315,423.157,213.571,438.352,215.913,453.222z"
				/>
		</g>
		<g id="POLYLINE_18_">
			<path style="fill:#FFB980;" d="M240.077,454.715c1.367,1.508,2.529,3.245,4.245,4.38c0.834,0.552,1.022,1.089,1.735,1.79
				c-4.596,1.189-9.394,1.592-14.123,1.188c-1.364-0.117-2.892-0.399-3.654-1.536c-0.742-1.105-0.464-2.576-0.159-3.871
				c0.275-1.164,0.647-2.462,1.696-3.036c0.492-0.269,1.067-0.334,1.626-0.372C234.334,453.06,238.131,452.567,240.077,454.715z"/>
		</g>
		<g id="POLYLINE_17_">
			<g>
				<path style="fill:#58D9F1;" d="M244.051,376.867c-0.175-1.079-0.362-2.157-0.565-3.232c-1.075-5.699-3.367-12.198-8.907-13.914
					c-3.095-0.958-6.509-0.09-9.328,1.506c-3.107,1.759-5.902,4.904-5.552,8.457c0.331,3.361,3.064,5.276,4.86,7.832
					c2.629,3.741,3.418,8.238,4.846,12.491c1.309,3.901,3.769,7.585,4.452,11.68c0.686,4.113-0.692,7.671-1.527,11.712
					c-0.93,4.504-7.185,41.523-2.971,42.419c3.43,0.728,6.688-2.117,10.229-1.831c-0.505-6.661-1.056-14.558,0.285-21.19
					c1.548-7.654,4.282-15.091,6.016-22.72c1.258-5.187,0.745-10.618,0.224-15.93C245.546,388.374,244.978,382.592,244.051,376.867z
					"/>
			</g>
		</g>
		<path style="fill:#67ACD6;" d="M231.812,370.85c4.381,0.748,8.196,3.331,11.858,5.849c-1.409-6.058-2.817-12.116-4.225-18.175
			c-0.079-0.339-15.048-2.129-16.167-1.572c-3.695,1.838-4.118,10.856-4.871,14.808C222.842,372.217,227.358,370.09,231.812,370.85z
			"/>
		<path style="fill:#F5906E;" d="M241.983,287.758l1.706,3.22c0.427,0.805-0.157,1.775-1.069,1.775h-1.603L241.983,287.758z"/>
		<g id="POLYLINE_22_">
			<path style="fill:#FFB980;" d="M242.337,286.581c0.116-2.477,0.566-6.554-1.567-8.404c-1.91-1.657-5.388-1.069-7.322,0.137
				c-2.18,1.359-3.62,3.681-4.414,6.124c-0.794,2.443-1.007,5.03-1.215,7.59c-0.343,4.221-0.686,8.443-1.029,12.664
				c0.069-0.851,6.379,3.153,6.833,3.659c0.884-0.682,2.377-0.454,3.503-0.51c-1.053-2.266-0.919-4.919-0.434-7.357
				c0.08-0.404,0.195-0.835,0.512-1.099c0.418-0.349,1.026-0.288,1.566-0.356C243.361,298.453,242.203,289.453,242.337,286.581z"/>
		</g>
		<g id="POLYLINE_15_">
			<path style="fill:#FF8F4A;" d="M243.665,313.991c0.109,0.354,0.215,0.713,0.319,1.074c1.01,3.497,1.588,7.096,2.177,10.682
				c0.243,1.477,0.216,3.569,0.866,4.921c0.475,0.988,1.598,1.434,2.03,2.457c0.368,0.871,0.369,1.835-0.346,2.531l-5.242,9.063
				c0.372,0.984,0.705,1.983,1.003,2.992c0.547,1.852,1,3.826,0.677,5.761c-0.127,0.762-0.477,1.465-0.581,2.231
				c-0.131,0.961-0.004,1.946-0.027,2.912c-0.018,0.777-0.199,1.444-0.434,2.181c-0.156,0.49-0.231,0.961-0.214,1.476
				c0.033,0.99,0.246,1.971,0.36,2.953c0.14,1.205,0.24,2.415,0.412,3.616c0.102,0.714,0.327,1.502,0.246,2.232
				c-0.019,0.176-0.06,0.369-0.208,0.484c-0.196,0.153-0.499,0.113-0.723,0.07c-0.835-0.159-1.593-0.63-2.354-0.984
				c-0.653-0.304-1.314-0.601-1.852-1.09c-0.554-0.503-0.925-1.169-1.32-1.794c-0.665-1.049-1.343-1.832-2.613-2.06
				c-0.911-0.163-1.847-0.124-2.766-0.212c-0.653-0.063-1.417-0.248-2.076-0.104c-0.207,0.045-0.328,0.132-0.467,0.288
				c-0.326,0.366-0.619,0.531-1.103,0.659c-1.015,0.267-2.069,0.368-3.096,0.579c-0.978,0.201-1.935,0.489-2.886,0.791
				c-1.099,0.349-2.198,0.755-3.332,0.978c-0.444,0.087-0.933,0.164-1.384,0.071c-0.793-0.163-0.928-0.913-0.973-1.619
				c-0.064-1-0.05-2.004-0.117-3.005c-0.081-1.203-0.187-2.407-0.21-3.612c-0.041-2.158,0.476-4.229,0.716-6.36
				c0.257-2.283,0.312-4.588,0.473-6.879c0.075-1.062,0.18-2.123,0.359-3.172c0.185-1.08,0.457-2.142,0.662-3.218
				c0.767-4.022,0.314-7.811-0.235-11.77c-0.586-4.227,1.155-9.446,1.819-13.645c0.66-4.176,1.629-8.85,5.18-11.145
				c3.936-2.544,8.35-0.263,11.921,1.798C241.424,307.91,242.682,310.792,243.665,313.991z"/>
		</g>
		<path style="fill:#F06A35;" d="M228.434,318.015c0.292,7.836,0.622,15.854,3.549,23.128c0.916,2.276,2.146,4.532,4.137,5.965
			c1.991,1.433,4.897,1.825,6.869,0.367c0.566-0.416-5.45-15.522-6.115-17.037C234.855,325.844,231.383,322.145,228.434,318.015z"/>
		<g id="POLYLINE_14_">
			<path style="fill:#4A6570;" d="M227.955,464.226c0.471,0.207,1.058,0.289,1.708,0.307c4.861,0.13,9.79,0.111,14.653,0.059
				c1.493-0.016,2.995-0.023,4.483-0.163c0.634-0.059,1.369-0.138,1.891-0.547c0.788-0.62,0.736-1.745,0.057-2.421
				c-0.958-0.953-5.045-3.106-6.389-2.318c-0.179,0.105-0.315,0.268-0.472,0.403c-0.385,0.329-0.887,0.481-1.379,0.602
				c-2.47,0.61-5.019,0.628-7.519,0.197c-1.562-0.269-2.522-0.176-3.851-1.043c-0.471-0.307-3.421-1.983-3.161-2.729
				c-0.651,1.862-1.161,3.672-1.168,5.667C226.805,463.322,227.249,463.915,227.955,464.226z"/>
		</g>
		<g id="POLYLINE_13_">
			<path style="fill:#4591BF;" d="M220.997,325.044c-3.411-2.365-5.423-6.801-5.48-11.066c-0.109-8.212,6.736-14.171,5.545-22.384
				c-0.43-2.96-0.995-5.671-0.368-8.704c0.518-2.501,1.637-5.042,3.256-7.028c1.484-1.82,3.548-2.765,5.847-3.091
				c3.238-0.46,6.13,0.38,9.226,1.113c2.584,0.612,5.214,0.823,5.848,4.058c0.37,1.891-0.517,3.965-2.14,5.003
				c-0.285-0.889-0.57-1.777-0.855-2.666c-0.984,1.188-1.556,1.919-2.912,2.538c-1,0.457-1.991,0.413-2.711,1.388
				c-1.907,2.584-1.487,5.358-0.709,8.201c0.771,2.818,1.895,5.632,1.709,8.548c-0.201,3.148-1.918,6.001-3.904,8.452
				c-1.986,2.45-4.294,4.651-6.023,7.289c-1.696,3.392-2.611,5.99-3.271,9.767C222.94,326.17,221.917,325.683,220.997,325.044z"/>
		</g>
		<polygon style="fill:#FFB980;" points="247.552,319.613 236.414,325.368 238.861,329.552 247.552,322.75 		"/>
		<path style="fill:#FFB980;" d="M246.98,321.142c0,0,2.46-6.85,3.444-7.342c0.985-0.492,5.415-1.723,5.415-1.723L246.98,321.142z"
			/>
		<polygon style="fill:#214A81;" points="242.364,326.201 260.558,306.262 279.455,314.66 260.935,334.946 		"/>
		<polygon style="fill:#FFFFFF;" points="246.98,324.808 260.91,309.449 275.104,315.756 260.928,331.376 		"/>
		<path style="fill:#FC8DDE;" d="M269.504,322.75l-13.665-15.328c0,0,0.769-1.16,1.046-1.16c0.277,0,13.383,15.322,13.383,15.322
			l0.231,1.473L269.504,322.75z"/>
		<g id="POLYLINE_12_">
			<path style="fill:#FFB980;" d="M242.794,334.939c2.441-1.5,4.69-3.405,7.15-4.84c2.692-1.57,5.353-2.56,7.723-4.712
				c1.015-0.921,1.977-1.977,2.396-3.282c0.801-2.496-0.392-5.446,1.234-7.754c1.41-2.002,4.319-2.368,6.53-3.106
				c0.709,0.973,0.757,2.38,0.116,3.398c-0.051,0.081,1.674,3.233,1.555,4.124c-0.134,1.012-2.008,3.716-2.653,1.464
				c0.474,1.654-3.431,6.733-4.36,7.899c-2.476,3.109-5.012,6.18-7.815,9.004c-5.249,5.289-11.051,8.014-15.809,0.093
				C240.17,336.509,241.484,335.744,242.794,334.939z"/>
		</g>
		<g id="POLYLINE_11_">
			<path style="fill:#FF8F4A;" d="M241.25,317.234c-0.908-2.594-1.682-6.844-4.881-7.344c-1.462-0.229-2.962,0.23-4.248,0.961
				c-2.421,1.377-4.247,3.762-4.944,6.458c-0.577,2.231-0.586,5.681,1.034,7.52c0.598,0.678,1.511,0.87,2.049,1.689
				c0.591,0.899,0.49,1.995,0.87,2.969c0.262,0.669,0.766,1.175,1.252,1.689c0.312,0.33,0.574,0.673,0.806,1.064
				c0.147,0.247,0.298,0.491,0.514,0.684c0.551,0.492,1.367,0.607,1.842,1.194c0.212,0.262,0.335,0.581,0.498,0.872
				c0.241,0.43,0.556,0.813,0.803,1.239c0.478,0.823,0.985,2.313,2.198,1.989c2.146-0.574,3.255-2.668,5.01-3.819
				c0.583-0.382,1.443-0.757,1.801-1.408c0.262-0.476,0.134-1.071-0.027-1.559c-0.257-0.78-0.719-1.237-1.29-1.797
				c-0.602-0.592-1.081-1.386-1.435-2.146c-0.451-0.97-0.579-2.049-0.805-3.086c-0.128-0.586-0.242-1.179-0.285-1.777
				c-0.045-0.63,0.004-1.261-0.01-1.892C241.977,319.527,241.646,318.366,241.25,317.234z"/>
		</g>
		<path style="fill:#FFB980;" d="M248.375,319.613c0,0,1.207-2.367,2.295-3.037c1.087-0.67,4.27-2.171,4.289-0.566
			s-3.292,1.444-3.292,1.444L248.375,319.613z"/>
	</g>
	<g>
		<path style="fill:#FFB980;" d="M484.891,320.032c-0.632,1.349-1.212,2.713-1.716,4.096c-0.629,1.729-0.516,4.009,1.037,4.995
			c1.545,0.98,3.579,0.162,5.126-0.816c3.961-2.505,8.122-6.298,9.372-10.928c1.02-3.78,1.58-7.807,2.397-11.652
			c0.593-2.786,3.239-8.156-1.106-8.083c-3.581,0.06-5.705,4.47-6.97,7.066C490.541,309.823,487.331,314.821,484.891,320.032z"/>
		<path style="fill:#67ACD6;" d="M487.997,309.949c-0.602,1.182-1.151,2.603-0.553,3.785c1.085,2.143,4.766,1.504,6.049,3.534
			c1.62-3.286,3.239-6.572,4.859-9.858c0.607-1.232,1.222-2.488,1.434-3.846c0.212-1.357-0.038-2.856-0.979-3.858
			C495.189,295.856,489.368,307.255,487.997,309.949z"/>
		<g id="POLYLINE_40_">
			<path style="fill:#FFB980;" d="M486.664,322.617c-0.64-0.293-1.275-0.587-1.896-0.906c-2.964-1.518-5.663-3.471-8.574-5.072
				c-1.861-0.975-3.691-2.012-5.541-3.007c-1.381-0.743-3.051-2.276-4.578-2.586c-0.32,1.171,0.21,2.331,0.894,3.253
				c-2.747,0.373-5.492,0.903-8.288,1.201c-0.418,1.151,0.026,2.499,0.899,3.358c0.873,0.858,2.104,1.275,3.323,1.386
				c3.177,0.289,6.531-1.159,9.636-0.065c2.078,0.732,3.765,3.038,5.366,4.524c2.317,2.154,4.625,4.257,7.084,6.244
				c1.763-0.491,2.491-1.538,2.88-3.326C488.259,325.834,488.328,323.378,486.664,322.617z"/>
		</g>
		<g id="POLYLINE_39_">
			<path style="fill:#3D535C;" d="M513.222,421.526c1.006,2.013,4.611,9.085,2.174,10.895c-0.345,0.256-0.756,0.405-1.16,0.55
				c-0.894,0.321-1.789,0.643-2.683,0.964c-5.415,1.957-10.209,2.709-15.928,3.162c-0.549,0.043-1.158,0.07-1.586-0.276
				c-1.962-1.582,2.002-1.981,2.63-2.286c1.76-0.856,3.465-2.991,4.762-4.42c1.723-1.898,3.297-3.717,4.514-5.983
				c0.774-1.441,0.269-1.397,1.563-2.292c0.342-0.237,5.104-1.504,5.127-1.46C512.827,420.748,513.024,421.131,513.222,421.526z"/>
		</g>
		<g id="POLYLINE_37_">
			<path style="fill:#2B719C;" d="M490.95,356.507c0.011-0.525,0.017-1.053,0.029-1.577l17.049-14.926
				c0.398,0.617,0.769,1.254,1.11,1.903c1.403,2.687,2.172,5.64,2.264,8.668c0.081,2.751-0.389,5.471-1.074,8.129
				c-0.784,3.056-1.659,6.082-2.299,9.171c-0.691,3.354-1.27,6.772-2.261,10.057c-0.784,2.596-1.931,5.047-1.799,7.819
				c0.054,1.162,0.17,2.394,0.585,3.487c0.416,1.1,1.171,2.032,1.873,2.958c1.71,2.261,3.306,4.542,4.469,7.14
				c1.22,2.709,1.74,5.504,1.981,8.446c0.257,3.127,0.346,6.343,1.07,9.411c0.249,1.047,0.772,1.986,1.044,3.021
				c0.223,0.845,0.186,1.748,0.076,2.61l-7.407,1.727c-0.332-0.781-0.594-1.598-0.725-2.438c-0.162-1.034-0.088-2.088-0.225-3.128
				c-0.313-2.368-1.214-4.494-2.303-6.597c-1.275-2.463-2.544-4.927-3.655-7.472c-1.016-2.32-1.882-4.752-3.2-6.92
				c-1.261-2.084-3.092-3.649-4.665-5.474c-0.949-1.103-1.637-2.284-1.791-3.748c-0.133-1.222,0.01-2.46,0.065-3.686
				c0.051-1.043,0.035-2.09,0.001-3.133c-0.099-3-0.204-5.999-0.25-8.999c-0.101-5.725,0.782-12.109-0.136-17.685
				c-0.875-5.313-1.85-9.863,2.364-14.291c3.858-4.053,10.496-5.12,15.43-2.48c0.368,0.958-0.026,2.149-0.892,2.7"/>
		</g>
		<g id="POLYLINE_36_">
			<path style="fill:#4A6570;" d="M504.728,425.229c0.541,2.185,2.509,9.875-0.265,11.107c-0.393,0.174-0.826,0.23-1.252,0.283
				c-0.943,0.118-1.886,0.235-2.829,0.353c-5.076,0.634-9.999,0.797-15.105,0.853c-2.368,0.026-5.61-1.209-1.648-2.664
				c2.71-0.995,5.357-2.477,7.713-4.134c2.097-1.475,4.031-2.904,5.715-4.849c1.071-1.237,0.568-1.304,2.027-1.894
				c0.386-0.156,5.31-0.349,5.323-0.302C504.513,424.383,504.622,424.799,504.728,425.229z"/>
		</g>
		<g id="POLYLINE_35_">
			<path style="fill:#4591BF;" d="M501.312,340.301c3.35-2.236,9.993-3.349,13.424-0.52c3.55,2.927,1.235,7.435,0.344,11.888
				c-2.397,11.985-8.13,21.22-12.236,32.283c-2.177,5.866,1.431,10.311,2.659,15.816c1.69,7.577-0.562,15.089-0.289,22.631
				c0.032,0.873-0.203,1.746-0.5,2.563l-7.606,0.057c-0.152-0.835-0.228-1.69-0.171-2.537c0.07-1.044,0.373-2.056,0.468-3.101
				c0.215-2.379-0.196-4.651-0.797-6.941c-1.229-4.684-2.266-10.223-3.867-15.102c-1.758-5.357-3.56-8.238-2.952-13.991
				c0.96-9.08,4.245-17.629,5.683-26.597C496.442,350.706,495.505,344.176,501.312,340.301z"/>
		</g>
		<path style="fill:#2B719C;" d="M493.165,347.612c2.339,2.653,5.451,4.666,8.896,5.464c3.445,0.799,7.214,0.329,10.237-1.506
			c1.126-0.684,2.178-1.595,2.675-2.815s0.3-2.788-0.727-3.613c-0.794-0.638-1.884-0.722-2.901-0.78
			c-6.896-0.393-13.791-0.786-20.687-1.179c0.262,3.467,3.107,6.57,6.539,7.129"/>
		<g id="POLYLINE_34_">
			<path style="fill:#58D9F1;" d="M514.786,333.02c0.003,0.693,0.02,1.383,0.055,2.07c0.227,4.369,3.883,7.807-0.544,11.67
				c-2.161,1.885-5.154,2.504-8.02,2.628c-8.309,0.359-21.176-2.158-17.546-12.505c1.719-4.9,2.422-11.462,2.009-16.636
				c-0.217-2.716-0.782-5.401-0.879-8.124c-0.184-5.187,2.438-7.426,4.801-11.532c2.013-3.498,4.314-6.257,8.405-7.239
				c3.22-0.773,6.245,0.144,9.099,1.872c1.096,0.663,3.493,1.774,4.081,2.936c0.669,1.322-0.263,3.689-0.388,5.089
				c-0.626,6.953-0.654,13.942-0.795,20.918C515.004,327.087,514.773,330.076,514.786,333.02z"/>
		</g>
		<path style="fill:#67ACD6;" d="M506.597,315.351c0.349,1.408,1.152,2.655,1.941,3.872c2.728,4.206,5.456,8.412,8.184,12.617
			c0.216-6.65-0.163-13.319-1.131-19.901c-0.237-1.612-0.532-3.277-1.46-4.617C509.729,300.97,505.681,311.655,506.597,315.351z"/>
		<path style="fill:#FFB980;" d="M509.027,294.827c0.49-0.98-0.884-5.484-0.97-6.709c-0.166-2.369-0.015-4.735,0.012-7.104
			c-1.039,0.287-9.056,3.737-9.113,3.399c0.44,2.583,1.182,5.247,1.514,7.816c0.228,1.763-0.496,4.618,1.247,5.845
			C504.185,299.813,507.999,297.013,509.027,294.827z"/>
		<g id="POLYLINE_493_">
			<path style="fill:#FFB980;" d="M510.816,333.671c-0.58,0.937-0.965,2.003-1.501,3.031c-1.131,2.171-2.693,4.188-4.236,6.078
				c-3.378,4.12-6.966,8.148-9.025,12.995c-0.183,0.431,2.084-0.375,2.203-0.447c0.81-0.49,1.417-1.815,1.948-2.558
				c-0.464,3.13-1.696,5.921-2.77,8.888c-0.286,0.791,5.04-1.309,5.665-2.098c1.669-2.107,2.621-5.343,3.318-7.898
				c0.259-0.962,0.441-1.921,0.935-2.798c1.354-2.411,3.617-4.403,5.498-6.391c1.973-2.082,8.618-7.406,4.458-10.567
				c-1.328-1.009-3.284-0.923-4.71-0.057C511.798,332.335,511.252,332.967,510.816,333.671z"/>
		</g>
		<path style="fill:#FFB980;" d="M512.758,322.222c0.296,3.295,0.194,5.183-0.486,8.38c-0.304,1.431-0.152,3.124,0.977,4.054
			c0.976,0.805,2.454,0.788,3.578,0.207c1.124-0.581,1.938-1.631,2.537-2.746c2.135-3.97,4.862-32.08-5.576-28.583
			c-3.643,1.221-2.522,4.977-2.138,7.834c0.483,3.591,0.777,7.202,1.104,10.81C512.755,322.192,512.757,322.207,512.758,322.222z"/>
		<g id="POLYLINE_490_">
			<path style="fill:#58D9F1;" d="M510.078,312.232c0.273,1.5,0.815,2.812,2.664,3.509c1.137,0.429,2.389,0.389,3.603,0.343
				c2.117-0.08,4.234-0.16,6.351-0.24c0.51-2.471-0.387-4.878-0.767-7.281c-0.411-2.597-0.915-5.109-2.147-7.466
				c-0.994-1.901-2.329-3.818-4.133-5.029c-0.78-0.522-1.65-0.945-2.54-1.252c-0.481-0.166-1.082-0.357-1.592-0.232
				c-1.317,0.323-1.644,6.487-1.77,7.624C509.379,305.54,509.477,308.934,510.078,312.232z"/>
		</g>
		<g id="POLYLINE_111_">
			<path style="fill:#966C49;" d="M513.252,278.945c-0.003,4.27-1.277,9.406-4.923,9.738c-3.695,0.337-7.86-1.395-10.673-3.681
				c-2.599-2.112-4.582-5.099-5.463-8.337c-0.915-3.362,1.218-6.088,4-7.999c0.485-0.333,1.03-0.532,1.588-0.71
				c0.82-0.261,1.528-0.628,2.29-1.026c5.383-2.812,10.845,2.595,12.571,7.444C513.021,275.441,513.254,277.113,513.252,278.945z"/>
		</g>
		<g id="POLYLINE_110_">
			<path style="fill:#FFB980;" d="M494.865,274.83c-0.573,2.335-0.64,4.892-0.519,7.283c0.115,2.272,0.616,4.501,1.676,6.524
				c0.795,1.517,1.943,3.221,3.596,3.89c1.416,0.573,2.954,0.114,4.255-0.546c1.483-0.752,3.017-1.873,3.749-3.415
				c0.618-1.3,0.273-2.529,0.38-3.889c-0.044,0.556,0.567,1.011,1.121,0.939c0.554-0.072,0.992-0.536,1.197-1.056
				c0.204-0.519,0.218-1.091,0.229-1.649c0.009-0.488,0.016-0.992-0.163-1.446c-0.179-0.455-0.592-0.853-1.081-0.859
				c-0.488-0.006-0.952,0.52-0.768,0.972c0.004-2.938-2.17-6.787-4.746-8.282c-1.452-0.842-3.277-1.697-5.003-1.432
				c-1.307,0.2-3.068,0.924-3.671,2.209C495.004,274.314,494.929,274.572,494.865,274.83z"/>
		</g>
		<path style="fill:#966C49;" d="M512.855,267.714c1.272,0.487,2.275,1.529,2.941,2.717c0.882,1.574,1.206,3.57,0.404,5.187
			c-1.042,2.102-4.019,2.95-6.012,1.713C506.552,275.075,507.036,265.487,512.855,267.714z"/>
		<path style="fill:#966C49;" d="M506.601,276.99c0.352-0.1,0.722-0.229,0.948-0.518c0.444-0.568,0.106-1.401-0.313-1.988
			c-1.497-2.098-3.952-3.483-6.522-3.677c-2.642-0.2-9.076,1.655-5.285,4.596C498.35,277.67,503.184,277.964,506.601,276.99z"/>
	</g>
</g>
</svg>
