<?xml version="1.0" encoding="utf-8"?>
<!-- Generator: Adobe Illustrator 27.5.0, SVG Export Plug-In . SVG Version: 6.00 Build 0)  -->
<svg version="1.1" xmlns="http://www.w3.org/2000/svg" xmlns:xlink="http://www.w3.org/1999/xlink" x="0px" y="0px"
	 viewBox="0 0 750 500" style="enable-background:new 0 0 750 500;" xml:space="preserve">
<g id="BACKGROUND">
	<g>
		<rect style="fill:#FFFFFF;" width="750" height="500"/>
	</g>
</g>
<g id="OBJECTS">
	<path style="fill:#E3FBFF;" d="M692.291,324.191c11.692-43.786,16.42-93.65-10.29-133.159
		c-5.495-8.129-12.095-15.426-19.863-21.435c-7.928-6.134-16.882-10.142-25.754-14.669c-9.163-4.676-17.696-10.157-21.989-19.917
		c-4.389-9.976-5.172-21.226-9.06-31.418c-15.526-40.704-55.87-67.535-99.536-65.331c-15.02,0.758-29.1,5.083-42.23,11.684
		c-22.949,7.665-43.372,23.486-63.95,36.019c-15.519,9.452-32.024,16.696-50.246,18.673c-17.165,1.863-34.569-0.201-50.97-5.507
		c-13.737-4.444-26.141-11.604-38.515-18.847c-0.085-0.049-0.17-0.1-0.256-0.15c-6.024-3.527-12.044-7.069-18.208-10.323
		c-1.742-0.92-3.423-0.745-4.756,0.021c-26.536-8.832-55.724-8.647-82.599,1.748c-37.944,14.676-66.315,48.59-76.603,87.691
		c-5.787,21.995-4.365,44.274-2.162,66.664c2.373,24.121,4.813,48.752-4.409,71.818c-8.094,20.245-21.435,38.379-22.448,60.881
		c-0.843,18.725,5.968,37.301,17.781,51.71c3.499,4.268,7.53,8.087,11.936,11.408c-9.745,1.464-15.031,3.026-15.031,4.647
		c0,8.351,139.628,15.12,311.867,15.12s311.867-6.77,311.867-15.12c0-2.801-15.728-5.424-43.107-7.673
		C671.685,396.285,683.366,357.617,692.291,324.191z"/>
	<g>
		<path style="fill:#F2A87A;" d="M621.163,125.758l4.31-42.25c-1.417-0.143-2.855-0.216-4.31-0.216
			c-23.454,0-42.467,19.013-42.467,42.467s19.013,42.467,42.467,42.467c23.454,0,42.467-19.013,42.467-42.467
			c0-3.47-0.418-6.843-1.203-10.071L621.163,125.758z"/>
		<path style="fill:#9ED9DB;" d="M656.479,102.169c-0.02-0.03-0.039-0.06-0.059-0.089l-35.257,23.678L656.479,102.169z"/>
		<path style="fill:#EE6E68;" d="M656.42,102.08c-6.87-10.21-18.058-17.273-30.948-18.572l-4.31,42.25L656.42,102.08z"/>
		<path style="fill:#3A658A;" d="M662.427,115.687c-1.19-4.892-3.227-9.453-5.947-13.518l-35.316,23.589L662.427,115.687z"/>
	</g>
	<polygon style="fill:#F2A87A;" points="190.556,116.203 178.505,80.394 144.417,105.529 160.915,109.346 150.27,139.617 
		125.48,146.159 123.069,165.785 93.161,176.459 99.311,207.103 145.45,187.821 145.45,162.342 164.043,158.21 176.338,112.914 	"/>
	<g>
		<g>
			<path style="fill:#4089AD;" d="M130.707,301.22l9.824-4.203l-4.555-19.906l-9.552,0.436c-1.567-2.558-3.472-4.887-5.65-6.927
				l1.743-10.075l-19.178-7.014l-4.75,8.109c-0.184-0.003-0.368-0.007-0.553-0.007c-3.569,0-7.007,0.564-10.23,1.605l-5.234-6.333
				l-17.808,9.993l4.123,11.956c-1.316,2.385-2.349,4.948-3.051,7.645l-8.664,2.437l1.936,20.329l9.295,0.786
				c1.5,2.929,3.423,5.605,5.686,7.951l-1.622,11.327l19.374,6.453l4.196-7.666c0.661,0.039,1.327,0.061,1.998,0.061
				c3.5,0,6.874-0.542,10.042-1.544l9.329,5.831l13.738-15.108l-4.361-5.695C128.643,308.48,129.988,304.961,130.707,301.22z
				 M85.493,294.906c0-6.927,5.616-12.543,12.543-12.543c6.927,0,12.543,5.616,12.543,12.543c0,6.927-5.616,12.543-12.543,12.543
				C91.109,307.449,85.493,301.833,85.493,294.906z"/>
			<g>
				<path style="fill:#26647F;" d="M98.036,274.848c-11.06,0-20.058,8.998-20.058,20.058c0,11.06,8.998,20.058,20.058,20.058
					c11.06,0,20.058-8.998,20.058-20.058C118.093,283.846,109.096,274.848,98.036,274.848z M98.036,312.98
					c-9.966,0-18.073-8.108-18.073-18.074s8.108-18.073,18.073-18.073c9.966,0,18.074,8.108,18.074,18.073
					S108.002,312.98,98.036,312.98z"/>
				<path style="fill:#26647F;" d="M119.952,272.989c-5.854-5.854-13.638-9.078-21.917-9.078c-8.279,0-16.063,3.224-21.917,9.078
					c-5.854,5.854-9.078,13.638-9.078,21.917c0,8.279,3.224,16.063,9.078,21.917c5.854,5.854,13.638,9.078,21.917,9.078
					c8.279,0,16.063-3.224,21.917-9.078c5.854-5.854,9.078-13.638,9.078-21.917C129.031,286.627,125.807,278.844,119.952,272.989z
					 M118.549,315.42c-5.479,5.479-12.765,8.497-20.514,8.497s-15.034-3.018-20.514-8.497c-5.48-5.479-8.497-12.765-8.497-20.514
					c0-7.749,3.018-15.034,8.497-20.514c5.479-5.479,12.765-8.497,20.514-8.497s15.034,3.018,20.514,8.497
					c5.479,5.479,8.497,12.765,8.497,20.514C127.047,302.655,124.029,309.94,118.549,315.42z"/>
			</g>
		</g>
		<g>
			<path style="fill:#4089AD;" d="M688.013,330.021l8.469-3.623l-3.926-17.16l-8.234,0.376c-1.351-2.205-2.993-4.213-4.87-5.971
				l1.502-8.685l-16.533-6.046l-4.095,6.991c-0.159-0.003-0.317-0.006-0.477-0.006c-3.077,0-6.04,0.487-8.818,1.383l-4.512-5.459
				l-15.352,8.614l3.554,10.307c-1.135,2.056-2.025,4.266-2.63,6.591l-7.468,2.101l1.669,17.524l8.013,0.678
				c1.293,2.525,2.951,4.832,4.901,6.854l-1.398,9.764l16.701,5.563l3.617-6.609c0.57,0.034,1.144,0.053,1.722,0.053
				c3.017,0,5.925-0.467,8.657-1.331l8.042,5.027l11.843-13.024l-3.759-4.909C686.234,336.279,687.394,333.246,688.013,330.021z
				 M649.037,324.578c0-5.971,4.841-10.812,10.812-10.812c5.971,0,10.812,4.841,10.812,10.812c0,5.971-4.841,10.812-10.812,10.812
				C653.878,335.39,649.037,330.549,649.037,324.578z"/>
			<g>
				<path style="fill:#26647F;" d="M659.849,307.287c-9.534,0-17.29,7.757-17.29,17.29s7.756,17.29,17.29,17.29
					c9.534,0,17.29-7.757,17.29-17.29S669.383,307.287,659.849,307.287z M659.849,340.158c-8.591,0-15.58-6.989-15.58-15.58
					c0-8.591,6.989-15.58,15.58-15.58c8.591,0,15.58,6.989,15.58,15.58C675.43,333.169,668.44,340.158,659.849,340.158z"/>
				<path style="fill:#26647F;" d="M678.743,305.685c-5.047-5.046-11.756-7.826-18.893-7.826c-7.137,0-13.846,2.779-18.893,7.826
					c-5.047,5.047-7.826,11.756-7.826,18.893c0,7.137,2.779,13.847,7.826,18.893c5.047,5.046,11.756,7.826,18.893,7.826
					c7.137,0,13.847-2.779,18.893-7.826c5.047-5.047,7.826-11.756,7.826-18.893C686.568,317.441,683.789,310.731,678.743,305.685z
					 M677.533,342.262c-4.724,4.723-11.004,7.325-17.684,7.325c-6.68,0-12.96-2.601-17.684-7.325
					c-4.724-4.724-7.325-11.004-7.325-17.684c0-6.68,2.601-12.96,7.325-17.684c4.723-4.723,11.004-7.325,17.684-7.325
					c6.68,0,12.96,2.601,17.684,7.325c4.724,4.724,7.325,11.004,7.325,17.684C684.858,331.258,682.257,337.538,677.533,342.262z"/>
			</g>
		</g>
		<g>
			<path style="fill:#4089AD;" d="M379.887,98.899l8.469-3.623l-3.926-17.16l-8.234,0.376c-1.351-2.205-2.993-4.213-4.87-5.971
				l1.502-8.685l-16.532-6.046L352.2,64.78c-0.159-0.003-0.317-0.006-0.477-0.006c-3.077,0-6.04,0.487-8.818,1.383l-4.512-5.459
				l-15.351,8.614l3.554,10.307c-1.134,2.056-2.025,4.266-2.63,6.59l-7.468,2.101l1.668,17.524l8.013,0.678
				c1.293,2.525,2.951,4.832,4.901,6.854l-1.398,9.764l16.701,5.563l3.617-6.609c0.57,0.034,1.144,0.053,1.722,0.053
				c3.017,0,5.925-0.467,8.657-1.331l8.042,5.027l11.843-13.024l-3.759-4.909C378.108,105.157,379.267,102.124,379.887,98.899z
				 M340.911,93.456c0-5.971,4.841-10.812,10.812-10.812c5.971,0,10.812,4.841,10.812,10.812s-4.841,10.812-10.812,10.812
				C345.752,104.269,340.911,99.428,340.911,93.456z"/>
			<g>
				<path style="fill:#26647F;" d="M351.723,76.166c-9.534,0-17.29,7.757-17.29,17.29s7.756,17.29,17.29,17.29
					s17.29-7.757,17.29-17.29S361.257,76.166,351.723,76.166z M351.723,109.036c-8.591,0-15.58-6.989-15.58-15.58
					s6.989-15.58,15.58-15.58c8.591,0,15.58,6.989,15.58,15.58S360.314,109.036,351.723,109.036z"/>
				<path style="fill:#26647F;" d="M370.616,74.563c-5.046-5.047-11.756-7.826-18.893-7.826c-7.137,0-13.847,2.779-18.893,7.826
					c-5.047,5.046-7.826,11.756-7.826,18.893s2.779,13.847,7.826,18.893c5.047,5.047,11.756,7.826,18.893,7.826
					c7.137,0,13.847-2.779,18.893-7.826c5.047-5.046,7.826-11.756,7.826-18.893S375.663,79.61,370.616,74.563z M369.407,111.14
					c-4.723,4.723-11.004,7.325-17.684,7.325c-6.68,0-12.96-2.601-17.684-7.325c-4.724-4.724-7.325-11.004-7.325-17.684
					s2.601-12.96,7.325-17.684c4.723-4.723,11.004-7.325,17.684-7.325c6.68,0,12.96,2.601,17.684,7.325
					c4.724,4.724,7.325,11.004,7.325,17.684S374.13,106.416,369.407,111.14z"/>
			</g>
		</g>
		<g>
			<path style="fill:#4089AD;" d="M687.987,237.546l5.111-2.187l-2.37-10.357l-4.97,0.227c-0.816-1.331-1.806-2.543-2.94-3.604
				l0.907-5.242l-9.978-3.649l-2.471,4.219c-0.096-0.002-0.192-0.004-0.288-0.004c-1.857,0-3.645,0.294-5.323,0.835l-2.723-3.295
				l-9.265,5.199l2.145,6.221c-0.685,1.241-1.222,2.574-1.587,3.978l-4.508,1.268l1.007,10.577l4.836,0.409
				c0.781,1.524,1.781,2.916,2.958,4.137l-0.844,5.893l10.08,3.357l2.183-3.989c0.344,0.02,0.69,0.032,1.039,0.032
				c1.821,0,3.576-0.282,5.225-0.803l4.854,3.034l7.148-7.861l-2.269-2.963C686.914,241.323,687.613,239.492,687.987,237.546z
				 M664.463,234.261c0-3.604,2.922-6.526,6.526-6.526c3.604,0,6.526,2.922,6.526,6.526c0,3.604-2.922,6.526-6.526,6.526
				C667.385,240.787,664.463,237.865,664.463,234.261z"/>
			<g>
				<path style="fill:#26647F;" d="M670.989,223.825c-5.754,0-10.436,4.682-10.436,10.436c0,5.754,4.682,10.436,10.436,10.436
					c5.754,0,10.436-4.682,10.436-10.436C681.424,228.506,676.743,223.825,670.989,223.825z M670.989,243.664
					c-5.185,0-9.403-4.218-9.403-9.404c0-5.185,4.218-9.404,9.403-9.404c5.185,0,9.404,4.218,9.404,9.404
					C680.392,239.446,676.174,243.664,670.989,243.664z"/>
				<path style="fill:#26647F;" d="M682.392,222.857c-3.046-3.046-7.096-4.723-11.403-4.723c-4.307,0-8.357,1.678-11.403,4.723
					c-3.046,3.046-4.723,7.096-4.723,11.403c0,4.308,1.677,8.357,4.723,11.403c3.046,3.046,7.096,4.723,11.403,4.723
					c4.308,0,8.357-1.678,11.403-4.723s4.723-7.096,4.723-11.403C687.115,229.953,685.438,225.903,682.392,222.857z
					 M681.662,244.934c-2.851,2.851-6.641,4.421-10.673,4.421s-7.822-1.57-10.673-4.421c-2.851-2.851-4.421-6.641-4.421-10.673
					s1.57-7.822,4.421-10.673c2.851-2.851,6.641-4.421,10.673-4.421s7.822,1.57,10.673,4.421c2.851,2.851,4.421,6.641,4.421,10.673
					S684.513,242.083,681.662,244.934z"/>
			</g>
		</g>
		<g>
			<path style="fill:#4089AD;" d="M134.667,112.291l5.112-2.187l-2.37-10.357l-4.97,0.227c-0.816-1.331-1.806-2.543-2.94-3.604
				l0.907-5.242l-9.978-3.649l-2.472,4.219c-0.096-0.002-0.191-0.004-0.288-0.004c-1.857,0-3.646,0.294-5.323,0.835l-2.723-3.295
				l-9.266,5.199l2.145,6.221c-0.685,1.241-1.222,2.575-1.587,3.978l-4.508,1.268l1.007,10.577l4.836,0.409
				c0.78,1.524,1.781,2.916,2.958,4.137l-0.844,5.894l10.08,3.357l2.183-3.989c0.344,0.02,0.69,0.032,1.04,0.032
				c1.821,0,3.576-0.282,5.225-0.803l4.854,3.034l7.148-7.861l-2.269-2.963C133.594,116.069,134.294,114.238,134.667,112.291z
				 M111.143,109.006c0-3.604,2.922-6.526,6.526-6.526s6.526,2.922,6.526,6.526c0,3.604-2.922,6.526-6.526,6.526
				S111.143,112.61,111.143,109.006z"/>
			<g>
				<path style="fill:#26647F;" d="M117.669,98.57c-5.754,0-10.436,4.682-10.436,10.436c0,5.754,4.681,10.436,10.436,10.436
					s10.436-4.682,10.436-10.436C128.105,103.252,123.423,98.57,117.669,98.57z M117.669,118.41c-5.185,0-9.403-4.218-9.403-9.404
					c0-5.185,4.218-9.404,9.403-9.404s9.404,4.218,9.404,9.404C127.072,114.191,122.854,118.41,117.669,118.41z"/>
				<path style="fill:#26647F;" d="M129.072,97.603c-3.046-3.046-7.096-4.723-11.403-4.723c-4.308,0-8.357,1.677-11.403,4.723
					c-3.046,3.046-4.723,7.096-4.723,11.403c0,4.308,1.678,8.357,4.723,11.403s7.096,4.723,11.403,4.723
					c4.308,0,8.357-1.677,11.403-4.723c3.046-3.046,4.723-7.096,4.723-11.403C133.795,104.699,132.118,100.649,129.072,97.603z
					 M128.342,119.679c-2.851,2.851-6.641,4.421-10.673,4.421s-7.822-1.57-10.673-4.421c-2.851-2.851-4.421-6.641-4.421-10.673
					s1.57-7.822,4.421-10.673c2.851-2.851,6.641-4.421,10.673-4.421s7.822,1.57,10.673,4.421c2.851,2.851,4.421,6.641,4.421,10.673
					S131.193,116.828,128.342,119.679z"/>
			</g>
		</g>
		<g>
			<path style="fill:#4089AD;" d="M465.111,82.741l5.112-2.187l-2.37-10.357l-4.97,0.227c-0.816-1.331-1.806-2.543-2.94-3.604
				l0.907-5.242l-9.978-3.649l-2.471,4.219c-0.096-0.002-0.191-0.004-0.288-0.004c-1.857,0-3.646,0.294-5.323,0.835l-2.723-3.295
				l-9.266,5.199l2.145,6.221c-0.685,1.241-1.222,2.575-1.587,3.978l-4.508,1.268l1.007,10.577l4.836,0.409
				c0.78,1.524,1.781,2.916,2.958,4.137l-0.844,5.893l10.08,3.357l2.183-3.989c0.344,0.02,0.69,0.032,1.04,0.032
				c1.821,0,3.576-0.282,5.225-0.803l4.854,3.034l7.148-7.861l-2.269-2.963C464.037,86.518,464.737,84.688,465.111,82.741z
				 M441.586,79.456c0-3.604,2.922-6.526,6.526-6.526c3.604,0,6.526,2.922,6.526,6.526c0,3.604-2.922,6.526-6.526,6.526
				C444.508,85.982,441.586,83.06,441.586,79.456z"/>
			<g>
				<path style="fill:#26647F;" d="M448.112,69.02c-5.754,0-10.436,4.681-10.436,10.436c0,5.754,4.682,10.436,10.436,10.436
					c5.754,0,10.436-4.682,10.436-10.436C458.548,73.702,453.867,69.02,448.112,69.02z M448.112,88.859
					c-5.185,0-9.403-4.218-9.403-9.404c0-5.185,4.218-9.404,9.403-9.404c5.185,0,9.404,4.218,9.404,9.404
					C457.516,84.641,453.297,88.859,448.112,88.859z"/>
				<path style="fill:#26647F;" d="M459.515,68.053c-3.046-3.046-7.096-4.723-11.403-4.723c-4.308,0-8.357,1.677-11.403,4.723
					c-3.046,3.046-4.723,7.096-4.723,11.403c0,4.308,1.678,8.357,4.723,11.403s7.096,4.723,11.403,4.723
					c4.308,0,8.357-1.677,11.403-4.723s4.723-7.096,4.723-11.403C464.239,75.148,462.561,71.099,459.515,68.053z M458.785,90.129
					c-2.851,2.851-6.641,4.421-10.673,4.421s-7.822-1.57-10.673-4.421c-2.851-2.851-4.421-6.641-4.421-10.673
					c0-4.032,1.57-7.822,4.421-10.673c2.851-2.851,6.641-4.421,10.673-4.421s7.822,1.57,10.673,4.421
					c2.851,2.851,4.421,6.641,4.421,10.673C463.206,83.488,461.636,87.278,458.785,90.129z"/>
			</g>
		</g>
	</g>
	<g>
		<path style="fill:#F2A87A;" d="M632.007,398.544h-46.195c0,0,0-182.05,0-230.227c0-48.177-38.726-47.862-38.726-47.862H386.399
			h-3.568H222.144c0,0-38.726-0.315-38.726,47.862c0,48.177,0,230.227,0,230.227h-46.195c0,0-0.295,29.118,35.601,29.118
			c33.782,0,193.137-1.129,211.791-1.262c18.654,0.133,178.009,1.262,211.791,1.262
			C632.302,427.662,632.007,398.544,632.007,398.544z"/>
		<g>
			<g>
				<polygon style="fill:#26647F;" points="408.798,400.12 408.797,400.118 408.798,400.12 				"/>
				<path style="fill:#26647F;" d="M632.328,396.245H136.902c-2.149,0-2.153,3.34,0,3.34h201.23
					c-0.001,0.025-0.004,0.049-0.004,0.075c-0.055,7.11,4.522,13.338,11.27,15.505c0.321,0.103,0.613,0.111,0.87,0.049
					c0.076,0.009,0.154,0.016,0.237,0.016h70.789c0.133,0,0.257-0.013,0.374-0.037c0.266,0.069,0.572,0.06,0.91-0.062
					c6.466-2.314,11.017-8.365,11.407-15.229c0.006-0.112,0.001-0.217-0.01-0.317h198.355
					C634.477,399.585,634.481,396.245,632.328,396.245z M408.797,400.118c-0.007-0.018-0.002-0.015,0.001,0.002
					c0.021,0.037,0.044,0.074,0.07,0.108c-0.045-0.058-0.063-0.09-0.07-0.108c0.003,0.018,0.001,0.048-0.028,0.083
					c-0.047,0.059-0.077,0.169-0.11,0.238c-0.074,0.152-0.152,0.303-0.234,0.451c-0.177,0.321-0.371,0.633-0.581,0.934
					c-0.401,0.575-0.867,1.102-1.378,1.582c-1.031,0.969-2.263,1.723-3.601,2.184c-0.07,0.024-0.134,0.06-0.19,0.104h-33.334
					c-0.089-0.088-0.213-0.146-0.375-0.145c-1.452,0.008-2.611-1.103-3.51-2.124c-0.945-1.073-1.793-2.372-1.847-3.842h45.156
					C408.68,399.756,408.703,399.948,408.797,400.118z M430.644,399.901c-0.301,5.296-3.953,10.219-8.955,12.009
					c-0.012,0.004-0.022,0.01-0.034,0.014c-0.113-0.022-0.233-0.035-0.362-0.035h-70.789c-0.107,0-0.206,0.01-0.303,0.026
					c-5.298-1.742-8.777-6.692-8.734-12.256c0-0.026-0.002-0.049-0.003-0.075h21.032c0.061,1.78,1.027,3.328,2.174,4.63
					c1.043,1.184,2.381,2.326,4.011,2.44c0.089,0.094,0.216,0.156,0.384,0.156h33.667c0.15,0,0.266-0.05,0.354-0.127
					c0.026-0.004,0.052-0.008,0.077-0.016c1.629-0.562,3.117-1.486,4.336-2.706c0.601-0.601,1.137-1.275,1.589-1.995
					c0.225-0.358,0.43-0.73,0.607-1.115c0.205-0.444,0.296-0.855,0.056-1.266h20.94C430.667,399.685,430.65,399.789,430.644,399.901
					z"/>
			</g>
			
				<ellipse transform="matrix(0.1602 -0.9871 0.9871 0.1602 -55.9554 702.0706)" style="fill:#3A658A;" cx="384.615" cy="383.919" rx="8.346" ry="8.346"/>
		</g>
		<g>
			<path style="fill:#FFFFFE;" d="M550.649,371.113H218.581c-11.632,0-21.062-9.43-21.062-21.062V153.967
				c0-11.632,9.43-21.062,21.062-21.062h332.069c11.632,0,21.062,9.43,21.062,21.062v196.085
				C571.711,361.684,562.282,371.113,550.649,371.113z"/>
			<g>
				<rect x="258.982" y="161.637" style="fill:#3A658A;" width="7.108" height="168.826"/>
				
					<rect x="391.76" y="192.185" transform="matrix(-1.836970e-16 1 -1 -1.836970e-16 722.2228 -68.4052)" style="fill:#3A658A;" width="7.108" height="269.448"/>
				<rect x="282.084" y="252.27" style="fill:#EE6E68;" width="25.768" height="62.199"/>
				<rect x="352.426" y="252.27" style="fill:#EE6E68;" width="25.768" height="62.199"/>
				<rect x="422.769" y="223.01" style="fill:#EE6E68;" width="25.768" height="91.459"/>
				<rect x="493.111" y="186.013" style="fill:#EE6E68;" width="25.768" height="128.456"/>
				<polygon style="fill:#3A658A;" points="513.908,167.971 499.786,167.525 503.407,173.347 435.729,216.378 403.065,192.592 
					366.006,244.474 334.07,222.7 288.884,245.445 290.686,249.025 333.763,227.342 366.988,249.995 403.975,198.213 
					435.576,221.224 505.524,176.751 509.359,182.916 				"/>
			</g>
			<path style="fill:#F2A87A;" d="M235.128,299.943L235.128,299.943c-4.508,0-8.196-3.688-8.196-8.196V194.21
				c0-4.508,3.688-8.196,8.196-8.196l0,0c4.508,0,8.196,3.688,8.196,8.196v97.537C243.325,296.255,239.637,299.943,235.128,299.943z
				"/>
			<path style="fill:#F2A87A;" d="M344.431,346.305L344.431,346.305c0-4.508,3.688-8.196,8.196-8.196h97.537
				c4.508,0,8.196,3.688,8.196,8.196l0,0c0,4.508-3.688,8.196-8.196,8.196h-97.537C348.119,354.501,344.431,350.813,344.431,346.305
				z"/>
		</g>
	</g>
	<g>
		<ellipse style="fill:#D0F8FC;" cx="603.132" cy="449.254" rx="68.223" ry="12.609"/>
		<g>
			<path style="fill:#EE6E68;" d="M602.12,288.425c0.763-1.27,0-27.249,0-27.249s-3.554-4.791,0-16.465
				c3.554-11.673,12.028-18.661,19.26-19.193c7.232-0.533,36.72-2.846,40.57,9.001c3.85,11.848,0,27.52-2.073,34.641
				c-2.073,7.121-9.496,21.601-9.496,21.601s19.853,25.805-1.912,76.747h-23.764l-4.665-8.961l-3.759,8.961
				c0,0-24.375-0.181-32.188-4.571C584.092,362.937,588.2,311.602,602.12,288.425z"/>
			<path style="fill:#EE6E68;" d="M605.823,294.571l-15.328-22.658l16.883-17.327l10.747-28.417c0,0-7.637,0.046-14.745,5.679
				c-7.108,5.633-34.654,31.959-35.098,36.9c-0.444,4.942,3.933,18.27,31.511,33.153L605.823,294.571z"/>
			<path style="fill:#FFC0A4;" d="M592.451,433.795c0,0,13.297-31.127,16.457-42.364s4.565-23.001,4.565-23.001l-26.864-3.687
				c0,0-12.115,64.698-13.871,69.045c-1.756,4.347-10.676,9.583-10.676,9.583s4.18,3.543,9.798,2.314
				c5.618-1.229,12.231-5.092,12.231-5.092L592.451,433.795"/>
			<path style="fill:#FFC0A4;" d="M618.127,443.081c0,0,7.11-5.999,8.515-8.106c1.405-2.107,0.878-31.604,0-36.696
				c-0.878-5.092-2.76-31.28-2.799-30.771c-0.039,0.509,24.626,0,24.626,0s1.876,21.289,1.174,32.527
				c-0.702,11.237-4.951,38.8-4.951,38.8l-7.866,2.687l-11.764,7.733L618.127,443.081"/>
			<path style="fill:#4089AD;" d="M655.874,225.216c-0.279-1.764-0.957-3.437-1.633-5.08c-0.69-1.678-1.36-3.363-1.968-5.072
				c-1.201-3.378-2.195-6.862-2.653-10.425c-0.408-3.172-0.419-6.617-2.208-9.4c-1.519-2.364-4.033-3.758-6.679-4.514
				c-2.944-0.841-6.046-0.987-9.088-1.105c-1.923-0.075-3.848-0.105-5.772-0.091c-1.748,0.013-3.543-0.023-5.263,0.332
				c-0.797,0.165-1.573,0.441-2.28,0.848c-0.113,0.065-0.185,0.15-0.227,0.244c-1.661,1.751-2.428,4.125-2.566,6.505
				c-0.16,2.754,0.577,5.456,1.463,8.037c0.471,1.373,0.987,2.73,1.446,4.107c0.469,1.408,0.87,2.839,1.198,4.286
				c0.643,2.831,1.011,5.719,1.101,8.621c0.102,3.281-0.146,6.569-0.755,9.795c-0.073,0.388,0.16,0.658,0.537,0.705
				c3.816,0.475,7.633,0.95,11.449,1.425c1.908,0.237,3.816,0.475,5.725,0.713c1.843,0.229,3.688,0.483,5.546,0.563
				c3.246,0.14,6.635-0.332,9.303-2.323c1.143-0.854,2.139-1.934,2.746-3.237C656.023,228.592,656.14,226.897,655.874,225.216z"/>
			<path style="fill:#FFC0A4;" d="M620.448,215.59c-0.482-1.905-1.233-3.705-2.125-5.452c-0.86-1.686-1.697-3.35-2.225-5.175
				c-1-3.457-1.096-7.17-0.248-10.67c0.107-0.441,0.23-0.879,0.365-1.312c0.119-0.383-0.197-0.66-0.537-0.705
				c-0.168-0.022-0.336-0.036-0.504-0.046c-0.133-0.187-0.384-0.32-0.604-0.227c-0.184,0.077-0.361,0.163-0.537,0.253
				c-0.05,0.005-0.101,0.008-0.151,0.014c-0.239,0.029-0.45,0.161-0.525,0.379c-0.67,0.44-1.262,0.987-1.759,1.639
				c-0.803,1.053-1.233,2.3-1.4,3.605c-0.346,2.703,0.464,5.396,0.244,8.102c-0.115,1.412-0.691,2.678-1.13,4.006
				c-0.399,1.208-0.571,2.475-0.425,3.743c0.027,0.237,0.066,0.471,0.112,0.703c0.141,1.324,0.526,2.622,1.164,3.804
				c1.523,2.821,4.477,4.84,7.646,5.284c0.811,0.114,1.842,0.287,2.541-0.244c0.635-0.482,0.796-1.32,0.812-2.074
				C621.199,219.337,620.907,217.407,620.448,215.59z"/>
			<path style="fill:#EE6E68;" d="M615.694,211.541c0,2.487-1.193,4.503-2.665,4.503c-1.472,0-2.665-2.016-2.665-4.503
				c0-2.487,1.193-4.503,2.665-4.503C614.501,207.039,615.694,209.055,615.694,211.541z"/>
			<path style="fill:#3A658A;" d="M610.46,248.292c-7.962,8.558-15.865,17.169-23.71,25.834c-1.44,1.59,0.915,3.959,2.362,2.362
				c7.844-8.665,15.748-17.277,23.709-25.834C614.285,249.082,611.928,246.715,610.46,248.292z"/>
			<path style="fill:#3A658A;" d="M657.442,225.149c-0.512-5.36-4.206-9.619-5.472-14.75c-1.261-5.11-0.546-10.652-3.17-15.405
				c-2.385-4.319-7.11-6.912-11.848-7.767c-3.351-0.605-6.745-0.518-10.121-0.189c-3.397,0.331-6.961,0.577-10.215,1.662
				c-0.874,0.292-1.209,1.057-1.145,1.779c-0.154,0.13-0.292,0.301-0.404,0.521c-1.616,3.172-2.351,6.753-1.913,10.302
				c0.454,3.682,2.145,6.898,3.824,10.15c1.659,3.214,2.925,6.528,3.214,10.165c0.286,3.611-0.223,7.165-1.481,10.559
				c-0.292,0.787,0.33,1.913,1.166,2.054c9.912,1.673,19.96,2.353,30.006,1.967c0.542-0.021,0.948-0.251,1.216-0.581
				c0.274,0.079,0.563,0.081,0.839-0.028C656.12,233.935,657.85,229.422,657.442,225.149z M647.838,204.596
				c-0.355-0.742-0.711-1.484-1.041-2.237c-0.902-2.055-1.615-4.349-1.438-6.595C647.128,198.323,647.546,201.478,647.838,204.596z
				 M622.515,231.292c1.841-6.298,1.281-13.088-1.446-19.078c-1.441-3.164-3.423-6.113-4.286-9.515
				c-0.849-3.346-0.395-6.947,1.167-10.014c0.17-0.333,0.22-0.66,0.186-0.962c1.046-0.307,2.113-0.52,3.188-0.69
				c-1.014,2.219-1.234,4.718-0.929,7.133c0.359,2.842,1.358,5.497,2.532,8.092c1.199,2.651,2.557,5.242,3.46,8.016
				c0.931,2.858,1.271,5.847,1.201,8.845c-0.069,2.941-0.511,5.853-1.115,8.728C625.153,231.681,623.832,231.497,622.515,231.292z
				 M627.583,231.985c1.131-5.435,1.705-11.112,0.308-16.542c-1.432-5.566-5.008-10.34-6.163-15.994
				c-0.586-2.869-0.526-5.975,0.926-8.587c0.004-0.007,0.005-0.014,0.009-0.021c0.894-0.114,1.791-0.209,2.685-0.309
				c0.632-0.071,1.265-0.136,1.899-0.195c-1.03,2.632-1.069,5.492-0.567,8.261c0.55,3.031,1.769,5.871,2.976,8.687
				c1.203,2.807,2.371,5.629,2.953,8.64c0.576,2.98,0.63,6.05,0.31,9.064c-0.266,2.506-0.809,4.979-1.552,7.388
				C630.104,232.264,628.842,232.134,627.583,231.985z M632.497,232.477c1.491-4.93,2.14-10.142,1.445-15.261
				c-0.414-3.051-1.397-5.923-2.584-8.751c-1.176-2.803-2.485-5.576-3.245-8.531c-0.799-3.104-1.03-6.539,0.304-9.534
				c0.024-0.053,0.039-0.108,0.05-0.164c1.712-0.126,3.428-0.175,5.143-0.07c0.401,0.025,0.806,0.064,1.213,0.111
				c-0.076,0.07-0.137,0.161-0.176,0.265c-2.06,5.48-0.091,11.345,1.785,16.568c0.983,2.736,1.969,5.489,2.426,8.371
				c0.454,2.859,0.403,5.791,0.051,8.658c-0.36,2.93-1.06,5.813-1.917,8.636C635.492,232.7,633.993,232.601,632.497,232.477z
				 M638.139,232.827c1.56-5.217,2.577-10.708,1.99-16.154c-0.316-2.927-1.156-5.72-2.134-8.486c-0.96-2.714-2.011-5.41-2.613-8.232
				c-0.643-3.013-0.762-6.193,0.337-9.116c0.057-0.152,0.017-0.316-0.074-0.449c1.38,0.215,2.76,0.569,4.064,1.089
				c-0.026,0.042-0.05,0.086-0.067,0.134c-1.938,5.534,0.156,11.344,2.136,16.538c1.013,2.656,2.013,5.327,2.537,8.131
				c0.498,2.659,0.597,5.392,0.334,8.084c-0.287,2.948-1.043,5.866-2.227,8.582C640.994,232.928,639.566,232.888,638.139,232.827z
				 M643.619,232.958c2.019-4.89,2.717-10.267,2.004-15.515c-0.381-2.805-1.23-5.483-2.218-8.127
				c-1.012-2.707-2.129-5.39-2.801-8.208c-0.72-3.016-0.927-6.217,0.109-9.186c1.379,0.666,2.639,1.543,3.685,2.661
				c-0.453,2.236-0.004,4.614,0.782,6.733c0.857,2.309,2.069,4.464,2.999,6.741c0.029,0.234,0.059,0.467,0.093,0.698
				c0.323,2.224,0.952,4.301,1.831,6.354c0.483,3.124,0.518,6.318,0.095,9.451c-0.388,2.868-1.16,5.699-2.306,8.359
				C646.467,232.951,645.043,232.966,643.619,232.958z M651.049,232.367c-0.298,0.118-0.565,0.295-0.773,0.516
				c-0.122-0.022-0.253-0.032-0.394-0.027c-0.26,0.01-0.519,0.017-0.779,0.025c1.901-4.651,2.733-9.711,2.438-14.729
				c0.653,1.317,1.301,2.637,1.8,4.021C654.459,225.276,654.907,230.843,651.049,232.367z"/>
			<path style="fill:#3A658A;" d="M654.872,245.909c-2.897,12.996-7.423,25.582-13.508,37.426c-0.588,1.145,0.213,2.211,1.161,2.468
				c0.081,0.252,0.214,0.495,0.384,0.715c1.703,2.201,3.406,4.403,5.109,6.604c0.556,0.719,1.775,0.574,2.362,0
				c0.712-0.697,0.549-1.652,0-2.362l-5.109-6.604c-0.115-0.148-0.258-0.258-0.418-0.336c5.91-11.744,10.379-24.188,13.239-37.023
				C658.559,244.703,655.34,243.809,654.872,245.909z"/>
			<path style="fill:#3A658A;" d="M646.799,365.838c-5.808,0.666-11.664,0.844-17.5,0.495c-0.72-0.043-1.44-0.094-2.159-0.152
				c-0.454-0.037-1.224,0.051-1.629-0.191c-0.6-0.359-0.616-2.167-0.792-2.82c-0.677-2.507-1.98-4.766-3.71-6.69
				c-0.658-0.731-2.203-0.633-2.623,0.338c-1.367,3.162-2.734,6.323-4.101,9.485c-9.532,0.755-19.087-0.42-28.153-3.492
				c-2.04-0.691-2.916,2.534-0.888,3.221c9.669,3.276,20.002,4.487,30.165,3.519c0.543-0.052,1.201-0.27,1.442-0.827
				c1.112-2.573,2.225-5.146,3.337-7.718c0.844,1.52,1.334,3.171,1.706,4.974c0.253,1.225,0.841,2.342,1.986,2.935
				c1.216,0.629,2.792,0.577,4.123,0.674c6.264,0.456,12.558,0.306,18.796-0.41c0.896-0.103,1.67-0.694,1.67-1.67
				C648.469,366.685,647.7,365.735,646.799,365.838z"/>
			<path style="fill:#3A658A;" d="M656.572,314.348c-15.241,2.94-30.925,3.451-46.331,1.564c-4.375-0.536-8.722-1.293-13.03-2.223
				c-2.096-0.452-2.991,2.767-0.888,3.221c15.604,3.366,31.715,4.3,47.597,2.662c4.54-0.468,9.059-1.139,13.54-2.004
				C659.568,317.162,658.675,313.942,656.572,314.348z"/>
			<path style="fill:#3A658A;" d="M585.379,434.536c-2.443,0.77-4.353,2.512-6.261,4.141c-2.06,1.759-4.14,3.154-6.721,4.03
				c-3.065,1.041-6.313,1.495-9.536,1.113c-0.355-0.042-0.621-0.216-0.798-0.448c-1.474,0.894-2.843,1.734-3.778,2.329
				c-3.258,2.073-2.073,3.554-2.073,3.554h24.583l3.297-7.108v7.108h4.108l4.251-15.459
				C590.065,433.764,587.691,433.807,585.379,434.536z"/>
			<path style="fill:#3A658A;" d="M639.176,437.971c-2.32,0.84-4.441,2.165-6.589,3.358c-4.303,2.39-9.014,4.343-13.862,2.299
				c-0.286-0.121-0.481-0.318-0.598-0.548c-1.655,1.001-3.221,1.96-4.257,2.619c-3.258,2.073-2.073,3.554-2.073,3.554h24.583
				l3.297-7.108v7.108h4.108l1.085-12.458C642.953,437.075,641.031,437.298,639.176,437.971z"/>
			<path style="fill:#3A658A;" d="M600.044,289.148c-1.532,2.945-3.063,5.89-4.595,8.835c-0.991,1.905,1.891,3.596,2.884,1.686
				c1.532-2.945,3.063-5.89,4.595-8.835C603.919,288.929,601.037,287.238,600.044,289.148z"/>
		</g>
	</g>
	<g>
		<ellipse style="fill:#D0F8FC;" cx="150.582" cy="449.254" rx="68.223" ry="12.609"/>
		<g>
			<path style="fill:#FFC0A4;" d="M150.273,207.449c-0.214-0.8-0.574-1.547-0.833-2.332c-0.27-0.818-0.334-1.647-0.351-2.503
				c-0.038-1.828-0.061-3.656-0.091-5.484c-0.007-0.412-0.379-0.587-0.691-0.524c-1.098-0.582-2.456-0.607-3.602-0.137
				c-1.302,0.534-2.241,1.633-2.751,2.925c-0.12,0.304-0.213,0.618-0.277,0.939c-0.059,0.297-0.045,0.655-0.169,0.935
				c-0.19,0.428-0.849,0.098-1.205-0.024c-0.66-0.227-1.294-0.364-1.986-0.18c-0.657,0.175-1.265,0.583-1.696,1.105
				c-0.919,1.114-1.165,2.627-1.195,4.031c-0.028,1.29,0.173,2.596,0.571,3.823c0.806,2.485,2.397,4.698,4.555,6.181
				c0.156,0.107,0.467,0.207,0.345,0.421c-0.178,0.312-0.542,0.543-0.821,0.759c-0.639,0.495-1.315,0.943-2.015,1.348
				c-1.417,0.821-2.932,1.441-4.515,1.858c-0.214,0.057-0.436,0.3-0.409,0.537c0.097,0.841,0.194,1.682,0.291,2.522
				c0.036,0.316,0.069,0.636,0.152,0.928c0.446-0.134,0.908-0.206,1.375-0.196c1.195,0.024,2.523-0.001,3.701,0.169
				c0.271-0.016,0.32-0.01,0.146,0.017c0.51-0.081,1.022-0.157,1.536-0.216c0.613-0.02,1.214,0.069,1.807,0.203
				c0.026-0.082,0.075-0.056,0.135,0.03c0.162,0.039,0.322,0.081,0.483,0.125c-0.077-1.013-0.217-2.095,0.328-2.966
				c0.317-0.507,0.877-0.664,1.416-0.834c0.614-0.194,1.213-0.441,1.777-0.753c1.148-0.634,2.147-1.513,2.942-2.554
				C150.942,215.361,150.999,210.174,150.273,207.449z"/>
			<path style="fill:#EE6E68;" d="M113.195,294.533c0,0-10.07-39.753-10.959-50.118c-0.888-10.364,1.691-22.022,31.501-20.636
				c29.81,1.386,37.214,6.665,40.176,21.056l6.887-1.603c0,0,8.219,16.883,10.885,27.249c2.666,10.366,2.108,28.016-19.975,30.15
				l1.067,40.074l-29.869,2.749l-5.721-10.182l-3.324,9.723l-25.241-6.014C108.622,336.983,110.529,306.737,113.195,294.533z"/>
			<polyline style="fill:#EE6E68;" points="110.676,335.816 112.899,436.921 131.262,436.921 140.692,335.816 112.899,330.09 
				110.676,335.816 			"/>
			<path style="fill:#3A658A;" d="M112.899,436.921c0,0-1.958,6.071,0,12.333h4.828v-2.435l2.696,2.087h21.22h1.826
				c0,0,1.305-1.652,0-3.479c-1.305-1.826-10.61-5.479-10.61-5.479l-1.597-3.027H112.899z"/>
			<polyline style="fill:#EE6E68;" points="135.087,330.09 165.103,436.921 183.467,436.921 165.103,330.09 137.31,324.363 
				162.88,335.816 			"/>
			<path style="fill:#3A658A;" d="M165.103,436.921c0,0-1.958,6.071,0,12.333h4.828v-2.435l2.696,2.087h21.22h1.826
				c0,0,1.305-1.652,0-3.479c-1.305-1.826-10.61-5.479-10.61-5.479l-1.597-3.027H165.103z"/>
			<path style="fill:#FFC0A4;" d="M180.034,241.578c-1.074-1.122-2.245-2.168-3.534-3.039c-1.439-0.973-3.067-1.706-4.796-1.951
				c-0.378-0.053-0.844,0.238-0.685,0.685c0.089,0.25,0.183,0.498,0.278,0.746c-0.046,0.102-0.059,0.225-0.017,0.365
				c0.521,1.748,1.085,3.484,1.694,5.204c0.151,0.427,0.296,0.859,0.464,1.28c0.166,0.413,0.444,0.769,0.921,0.809
				c0.453,0.038,0.873-0.221,1.27-0.405c0.431-0.2,0.863-0.399,1.294-0.599l2.489-1.151c0.389-0.18,0.858-0.332,1.018-0.772
				C180.599,242.289,180.342,241.9,180.034,241.578z"/>
			<path style="fill:#4089AD;" d="M146.707,194.056c-1.354-3.233-3.195-6.341-6.12-8.386c-1.388-0.971-2.987-1.644-4.669-1.871
				c-1.948-0.263-3.988-0.042-5.904,0.358c-3.133,0.654-5.953,2.231-8.127,4.584c-2.032,2.199-3.478,4.948-4.143,7.868
				c-0.686,3.013-0.498,6.167,0.442,9.105c0.962,3.004,2.658,5.758,4.85,8.021c2.256,2.328,5.069,4.183,8.189,5.111
				c1.574,0.468,3.248,0.701,4.889,0.561c0.825-0.07,1.645-0.223,2.431-0.485c0.784-0.262,1.56-0.596,2.188-1.143
				c0.564-0.491,1.068-1.226,1.011-2.007c-0.066-0.897-0.762-1.382-1.508-1.735c-1.356-0.641-2.445-1.68-3.119-3.025
				c-0.69-1.375-0.812-2.978-0.406-4.456c0.21-0.765,0.556-1.481,1.025-2.122c0.438-0.599,1.008-1.092,1.493-1.652
				c0.504-0.582,0.944-1.237,1.08-2.008c0.006-0.036,0.01-0.073,0.011-0.109c1.104-2.66,3.319-4.864,5.999-5.924
				C146.57,194.641,146.833,194.357,146.707,194.056z"/>
			<path style="fill:#3A658A;" d="M174.736,298.056c-5.832-1.09-8.686-7.748-11.028-12.498c-3.162-6.411-5.757-13.092-7.777-19.949
				c-1.136-3.857-2.083-7.766-2.854-11.712c-0.412-2.107-3.632-1.215-3.221,0.888c1.452,7.425,3.544,14.716,6.279,21.771
				c1.357,3.501,2.858,6.949,4.508,10.321c1.45,2.962,2.932,5.977,4.93,8.616c2.086,2.755,4.78,5.13,8.274,5.783
				C175.949,301.67,176.849,298.451,174.736,298.056z"/>
			<path style="fill:#3A658A;" d="M180.79,274.675c-1.274-9.779-3.049-19.48-5.363-29.068c-0.504-2.089-3.726-1.204-3.221,0.888
				c2.242,9.292,4.008,18.7,5.243,28.18c0.117,0.894,0.684,1.67,1.67,1.67C179.932,276.345,180.907,275.576,180.79,274.675z"/>
			<path style="fill:#3A658A;" d="M172.776,340.707c-0.267-0.955-1.155-1.301-2.054-1.166c-6.541,0.978-13.17,1.372-19.782,1.204
				c-1.6-0.041-3.198-0.115-4.795-0.222c-1.3-0.087-2.544,0.081-3.266-1.15c-1.61-2.745-2.992-5.651-4.476-8.466
				c-0.727-1.377-2.581-0.854-3.052,0.399c-1.002,2.662-2.004,5.324-3.006,7.986c-0.104,0.277-0.227,0.954-0.494,1.138
				c-0.272,0.187-1.236-0.031-1.584-0.052c-1.374-0.082-2.747-0.207-4.112-0.385c-5.314-0.691-10.526-2.138-15.478-4.176
				c-0.84-0.346-1.828,0.375-2.054,1.166c-0.273,0.955,0.336,1.713,1.166,2.054c5.757,2.368,11.815,3.859,18.008,4.482
				c2.662,0.268,5.956,0.919,7.265-2.055c0.804-1.828,1.498-3.718,2.179-5.61l0.858,1.626c0.721,1.368,1.357,2.857,2.248,4.125
				c0.979,1.392,2.29,1.949,3.946,2.117c1.772,0.18,3.561,0.257,5.34,0.322c7.354,0.271,14.703-0.194,21.978-1.282
				C172.499,342.628,172.998,341.501,172.776,340.707z"/>
			<path style="fill:#3A658A;" d="M149.533,195.26c-0.02-0.089-0.069-0.167-0.133-0.232c-0.004-0.139-0.021-0.283-0.063-0.435
				c-1.524-5.489-5.824-10.028-11.277-11.737c-5.739-1.799-12.399-0.191-16.697,4.008c-4.109,4.014-5.935,10.069-5.199,15.712
				c0.762,5.851,4.144,11.093,8.766,14.675c2.795,2.165,6.121,3.932,9.721,4.079c3.271,0.134,6.538-1.363,8.28-4.175
				c0.311-0.502,0.316-0.99,0.142-1.4c0.067-0.119,0.123-0.25,0.153-0.383c0.023-0.104,0.036-0.214,0.038-0.323
				c0.524-1.135-0.354-2.832-1.905-2.372c-2.114,0.627-3.206-1.896-3.455-3.549c-0.063-0.419-0.189-1.318-0.214-2.269
				c0.414-0.092,0.837-0.11,1.251-0.059c-0.122,0.069-0.216,0.187-0.277,0.336c-0.322,0.795-0.254,1.709,0.075,2.488
				c0.352,0.832,0.984,1.462,1.814,1.812c0.269,0.114,0.624-0.122,0.685-0.389c0.074-0.326-0.1-0.563-0.389-0.685
				c0.116,0.049-0.028-0.017-0.04-0.023c-0.035-0.018-0.07-0.037-0.104-0.056c-0.076-0.043-0.147-0.092-0.219-0.14
				c-0.006-0.004-0.009-0.006-0.013-0.009c-0.002-0.002-0.002-0.002-0.005-0.005c-0.03-0.025-0.061-0.05-0.09-0.077
				c-0.059-0.052-0.115-0.108-0.169-0.165c-0.033-0.035-0.064-0.07-0.095-0.106c-0.005-0.005-0.029-0.036-0.045-0.056
				c-0.015-0.02-0.037-0.051-0.041-0.057c-0.027-0.039-0.053-0.079-0.079-0.119c-0.042-0.067-0.081-0.136-0.118-0.207
				c-0.022-0.042-0.042-0.086-0.063-0.128c-0.004-0.007-0.006-0.011-0.008-0.016c0-0.002,0-0.002-0.001-0.004
				c-0.052-0.159-0.11-0.313-0.145-0.478c-0.008-0.039-0.015-0.078-0.023-0.117c-0.002-0.011-0.004-0.021-0.005-0.03
				c-0.008-0.082-0.015-0.164-0.017-0.247c-0.002-0.087,0-0.173,0.006-0.26c0.002-0.031,0.007-0.063,0.008-0.094
				c-0.008,0.132,0.003-0.016,0.007-0.039c0.032-0.172,0.082-0.338,0.148-0.5c0.063-0.155,0.013-0.335-0.09-0.474
				c0.65,0.212,1.245,0.603,1.705,1.154c0.193,0.231,0.588,0.199,0.787,0c0.229-0.229,0.193-0.556,0-0.787
				c-1.053-1.263-2.805-1.872-4.419-1.61c0.1-1.1,0.438-2.031,1.296-2.071c0.237-0.011,0.706,0.296,0.984,0.406
				c0.532,0.21,1.101,0.338,1.67,0.214c1.241-0.27,1.796-1.311,1.878-2.494c0.087-1.267,0.77-4.677,2.807-3.413
				c0.954,0.592,1.866,0.092,2.263-0.684c0.386-0.286,0.659-0.649,0.834-1.098C149.612,196.159,149.629,195.693,149.533,195.26z
				 M119.671,203.393c-0.958-4.424,0.082-9.403,2.938-12.95c2.053-2.549,5.072-4.246,8.287-4.797
				c-0.981,0.73-1.916,1.527-2.797,2.376c-1.785,1.719-3.361,3.675-4.61,5.817c-2.219,3.806-3.307,8.193-2.874,12.561
				C120.216,205.428,119.895,204.424,119.671,203.393z M122.446,209.823c-0.833-2.604-1.035-5.427-0.63-8.109
				c0.701-4.645,3.134-8.868,6.375-12.212c0.931-0.96,1.929-1.857,2.983-2.68c0.678-0.529,1.399-1.027,2.183-1.37
				c0.714,0.01,1.428,0.077,2.134,0.208c1.21,0.223,2.367,0.614,3.446,1.147c-4.113,0.348-7.956,3.135-10.438,6.327
				c-3.33,4.283-4.826,9.733-4.079,15.112c0.271,1.956,0.836,3.872,1.665,5.666C124.7,212.718,123.467,211.341,122.446,209.823z
				 M128.213,215.514c-2.578-4.158-3.521-9.284-2.447-14.076c1.074-4.792,4.063-9.336,8.338-11.845
				c2.029-1.191,4.402-1.908,6.742-1.637c0.453,0.326,0.886,0.679,1.297,1.057c-3.803,0.391-7.429,2.379-9.825,5.393
				c-3.445,4.334-4.422,10.147-3.138,15.473c0.667,2.769,1.902,5.393,3.531,7.726C131.093,217.146,129.508,216.35,128.213,215.514z
				 M140.638,198.844c-0.179,0.546-0.285,1.118-0.35,1.691c-0.14-0.048-0.279-0.089-0.399-0.12c-1.518-0.39-3.15,0.345-4.123,1.506
				c-0.115,0.138-0.219,0.281-0.317,0.427c0.706-2.345,2.238-4.403,4.503-5.439c0.715-0.327,1.493-0.528,2.28-0.594
				C141.517,197.007,140.953,197.884,140.638,198.844z M143.758,195.247c-2.654-0.343-5.369,0.771-7.154,2.757
				c-1.989,2.213-2.846,5.235-2.72,8.173c0.079,1.848,0.508,3.667,1.156,5.395c0.026,0.069,0.062,0.133,0.106,0.189
				c0.797,2.034,2.478,3.763,4.535,4.229c-1.362,1.761-3.327,2.204-5.373,1.947c-0.012-0.028-0.025-0.055-0.044-0.08
				c-3.203-4.211-5.115-9.581-4.378-14.904c0.346-2.502,1.244-4.928,2.674-7.014c1.411-2.058,3.358-3.689,5.628-4.724
				c1.557-0.71,3.262-1.115,4.973-1.162c1.208,1.37,2.152,2.981,2.743,4.743C145.16,194.762,144.431,194.93,143.758,195.247z"/>
			<path style="fill:#EE6E68;" d="M150.11,211.606c0,2.487-1.193,4.503-2.665,4.503c-1.472,0-2.665-2.016-2.665-4.503
				s1.193-4.503,2.665-4.503C148.917,207.103,150.11,209.119,150.11,211.606z"/>
		</g>
	</g>
	<g>
		<path style="fill:#4089AD;" d="M288.458,114.397c-0.533-1.084-1.422-1.913-2.495-2.323c0.295-1.214-0.08-2.759-0.543-3.738
			c-0.829-1.752-2.62-3.045-4.619-2.726c-0.415,0.066-0.665,0.33-0.766,0.643l-28.005,11.334c-0.212,0.086-0.36,0.216-0.454,0.369
			c-0.502-0.019-0.855,0.363-0.978,0.829c-0.588,2.225,0.526,4.691,2.462,5.864c-0.646,1.5-0.831,3.257-0.146,4.765
			c0.591,1.302,1.696,2.263,3.025,2.613c-0.243,1.994,0.455,4.032,2.017,5.392c1.679,1.462,4.202,1.799,6.242,0.96
			c0.166,0.035,0.351,0.022,0.55-0.058l23.977-9.704c0.245-0.099,0.405-0.258,0.494-0.443c1.441-1.266,2.252-3.176,2.014-5.104
			c-0.213-1.725-1.24-3.243-2.68-4.164C289.052,117.449,289.148,115.798,288.458,114.397z"/>
		<path style="fill:#EE6E68;" d="M272.644,55.521c-8.636-4.869-19.444-5.615-28.694-2.071c-0.282-0.036-0.581,0.054-0.806,0.231
			c-0.285,0.029-0.563,0.172-0.74,0.394c-9.111,3.887-16.358,11.941-19.177,21.445c-3.14,10.586-0.754,22.445,7.26,30.255
			c4.642,4.523,10.904,6.568,16.798,8.955c1.196,0.955,2.311,2.013,3.3,3.231c0.332,0.408,0.8,0.435,1.171,0.257l0.742,0.314
			c0.47,0.199,1.094-0.024,1.279-0.518c0.104-0.278,0.087-0.58-0.038-0.829c4.356-1.378,8.629-3.003,12.801-4.869
			c0.104-0.046,0.191-0.104,0.266-0.169c0.099-0.005,0.202-0.024,0.309-0.063c4.295-1.561,8.496-3.366,12.584-5.405
			c0.084,0.265,0.281,0.495,0.549,0.622c0.476,0.226,1.079-0.047,1.279-0.518l0.315-0.742c0.39-0.13,0.708-0.475,0.662-0.999
			c-0.135-1.563-0.071-3.099,0.125-4.617c2.574-5.815,5.651-11.639,5.841-18.118C288.797,71.124,282.263,60.944,272.644,55.521z"/>
		<path style="fill:#26647F;" d="M280.8,105.295l-8.753,3.542c-0.028-0.053-0.06-0.106-0.101-0.159
			c-4.037-5.249-7.247-11.095-9.512-17.305c1.408-1.332,2.568-2.935,3.416-4.67c1.6-3.276,2.793-8.657-0.78-11.125
			c-1.598-1.104-3.661-1.039-5.156,0.225c-1.593,1.347-2.152,3.344-2.076,5.369c0.084,2.216,0.781,4.459,1.387,6.578
			c0.29,1.014,0.607,2.021,0.946,3.019c-0.319,0.25-0.65,0.485-0.993,0.705c-1.122,0.719-2.354,1.217-3.633,1.498
			c-0.902-1.864-1.936-3.656-3.189-5.278c-1.934-2.504-6.837-7.304-9.82-3.565c-2.858,3.581,1.19,7.881,4.278,9.536
			c2.293,1.229,4.977,1.708,7.574,1.45c0.492,1.111,0.947,2.236,1.388,3.354c1.564,3.963,2.85,8.04,3.815,12.191
			c0.229,0.983,0.439,1.971,0.635,2.961l-8.796,3.56c-1.154,0.467-0.43,2.261,0.726,1.793l29.367-11.885
			C282.68,106.621,281.956,104.827,280.8,105.295z M260.92,86.671c-0.747-2.665-2.652-8.091,0.791-9.745
			c1.351-0.649,2.778,0.307,3.339,1.564c0.727,1.631,0.394,3.607-0.109,5.255c-0.635,2.081-1.736,4.007-3.211,5.59
			C261.442,88.453,261.171,87.566,260.92,86.671z M250.103,92.878c-1.487-0.374-2.9-1.079-4.088-2.047
			c-1.224-0.997-2.646-2.588-2.455-4.291c0.074-0.659,0.436-1.354,1.033-1.681c0.67-0.368,1.441-0.043,2.056,0.284
			c1.526,0.811,2.835,2.063,3.913,3.398c1.163,1.44,2.115,3.033,2.945,4.691C252.369,93.277,251.22,93.16,250.103,92.878z
			 M258.201,99.382c-0.57-1.532-1.165-3.086-1.829-4.613c0.415-0.105,0.826-0.229,1.228-0.374c1.164-0.42,2.254-1.005,3.253-1.718
			c0.221,0.59,0.451,1.178,0.689,1.761c1.8,4.41,4.083,8.632,6.783,12.557c0.604,0.879,1.233,1.74,1.879,2.589l-8.156,3.301
			C261.112,108.294,259.835,103.773,258.201,99.382z"/>
		<path style="fill:#26647F;" d="M283.515,112.002l-29.367,11.885c-1.154,0.467-0.43,2.261,0.726,1.794l29.367-11.885
			C285.395,113.329,284.671,111.534,283.515,112.002z"/>
		<path style="fill:#26647F;" d="M286.229,118.71l-29.367,11.885c-1.154,0.467-0.43,2.261,0.726,1.794l29.368-11.885
			C288.109,120.036,287.385,118.242,286.229,118.71z"/>
		<path style="fill:#EE6E68;" d="M232.046,116.272c-0.635,1.356-1.27,2.713-1.905,4.069c-0.529,1.13,1.254,1.882,1.781,0.755
			c0.635-1.356,1.27-2.713,1.905-4.069C234.356,115.897,232.573,115.145,232.046,116.272z"/>
		<path style="fill:#EE6E68;" d="M221.153,104.835c-1.093,0.866-2.247,1.651-3.471,2.321c-0.458,0.251-0.746,0.735-0.534,1.26
			c0.179,0.441,0.798,0.786,1.26,0.534c1.378-0.754,2.69-1.602,3.922-2.578C223.304,105.6,222.133,104.059,221.153,104.835z"/>
		<path style="fill:#EE6E68;" d="M215.284,88.902c-1.39,0.034-2.78,0.069-4.17,0.103c-1.246,0.031-1.012,1.953,0.223,1.922
			c1.39-0.034,2.78-0.069,4.17-0.103C216.754,90.794,216.52,88.871,215.284,88.902z"/>
		<path style="fill:#EE6E68;" d="M221.177,67.036c-1.367-0.567-2.772-1.018-4.208-1.371c-0.511-0.126-1.022,0.338-1.097,0.818
			c-0.087,0.559,0.314,0.973,0.818,1.097c1.276,0.314,2.518,0.734,3.732,1.238C221.573,69.295,222.329,67.514,221.177,67.036z"/>
		<path style="fill:#EE6E68;" d="M232.359,50.033c-0.742-0.999-2.281,0.175-1.536,1.177c0.859,1.156,1.564,2.386,2.126,3.713
			c0.486,1.145,2.281,0.423,1.794-0.726C234.115,52.718,233.316,51.321,232.359,50.033z"/>
		<path style="fill:#EE6E68;" d="M255.013,41.65c-0.2,1.674-0.4,3.347-0.601,5.021c-0.148,1.237,1.767,1.516,1.915,0.278
			c0.2-1.674,0.4-3.347,0.601-5.021C257.076,40.692,255.161,40.412,255.013,41.65z"/>
		<path style="fill:#EE6E68;" d="M278.224,47.773c-1.112,1.242-2.151,2.543-3.117,3.902c-0.719,1.012,0.808,2.201,1.532,1.182
			c0.965-1.359,2.004-2.66,3.117-3.902C280.586,48.028,279.052,46.848,278.224,47.773z"/>
		<path style="fill:#EE6E68;" d="M292.869,63.294c-1.636,0.65-3.242,1.366-4.819,2.149c-1.108,0.55-0.392,2.348,0.726,1.794
			c1.577-0.782,3.184-1.499,4.82-2.149C294.752,64.628,294.027,62.833,292.869,63.294z"/>
		<path style="fill:#EE6E68;" d="M299.507,81.816c-2.245-0.776-4.48-1.583-6.703-2.42c-1.164-0.438-1.923,1.341-0.755,1.782
			c2.223,0.838,4.457,1.645,6.703,2.42C299.924,84.002,300.687,82.223,299.507,81.816z"/>
		<path style="fill:#EE6E68;" d="M294.16,97.505c-1.579-0.378-3.03-1.11-4.302-2.114c-0.977-0.771-2.162,0.758-1.182,1.532
			c1.541,1.216,3.299,2.041,5.205,2.497C295.094,99.711,295.362,97.793,294.16,97.505z"/>
	</g>
	<g>
		<path style="fill:#EE6E68;" d="M546.826,121.921c4.266-11.521,2.622-24.057,0.395-35.819c-0.245-1.294-0.498-2.586-0.752-3.878
			c1.724-2.306,3.448-4.613,5.172-6.92c1.544-2.066,3.242-4.085,4.575-6.297c1.138-1.889,1.865-4.116,1.243-6.31
			c-0.52-1.834-1.848-3.266-3.31-4.439c0.555-1.264,0.555-2.713-0.145-3.989c-0.863-1.575-2.601-2.304-4.313-2.184
			c-2.114-2.519-5.479-3.443-8.684-2.781c-2.891,0.597-5.265,2.475-7.126,4.701c-0.554-0.545-1.159-1.032-1.837-1.453
			c-1.023-0.636-2.415-1.317-3.644-1.345c-1.408-0.032-1.824,1.037-1.948,2.242c-0.148,1.433-0.281,2.867-0.397,4.303
			c-0.453,5.612-0.635,11.244-0.561,16.874c-0.051,0.019-0.102,0.04-0.153,0.067c-10.043,5.165-20.394,11.057-26.9,20.6
			c-5.683,8.336-7.929,19.264-3.305,28.584c2.504,5.046,6.696,9.596,11.279,12.833c2.59,1.829,5.565,2.923,8.637,3.635
			c2.877,0.668,5.872,1.082,8.828,0.849c5.119-0.405,9.876-2.635,13.799-5.889C541.926,131.783,544.922,127.064,546.826,121.921z"/>
		<path style="fill:#26647F;" d="M545.017,80.965c-1.011-0.338-2.02-0.683-3.026-1.033l3.976-7.374l4.394-8.148
			c0.828-1.535,1.656-3.07,2.484-4.606c0.247-0.457-0.463-0.843-0.71-0.384l-4.394,8.148c-1.465,2.716-2.929,5.432-4.394,8.148
			c-0.709,1.315-1.418,2.63-2.127,3.945c-0.92-0.323-1.839-0.65-2.755-0.982c1.414-3.228,2.868-6.439,4.363-9.63
			c1.595-3.405,3.237-6.788,4.923-10.148c0.948-1.889,1.911-3.772,2.888-5.646c0.24-0.46-0.47-0.846-0.71-0.385
			c-1.737,3.335-3.43,6.692-5.077,10.072c-1.647,3.38-3.248,6.782-4.803,10.205c-0.793,1.746-1.573,3.499-2.342,5.256
			c-2.528-0.926-5.043-1.889-7.544-2.89c0.544-2.59,1.124-5.172,1.742-7.745c0.656-2.731,1.353-5.453,2.091-8.163
			c0.416-1.527,0.845-3.05,1.287-4.57c0.145-0.499-0.642-0.681-0.787-0.182c-0.784,2.697-1.528,5.406-2.23,8.126
			c-0.702,2.72-1.363,5.45-1.983,8.19c-0.304,1.344-0.596,2.691-0.88,4.039c-0.645-0.26-1.289-0.522-1.932-0.788
			c-0.605-0.25-1.307-0.13-1.642,0.488c-0.287,0.529-0.12,1.391,0.489,1.642c5.972,2.466,12.027,4.727,18.155,6.774
			C545.947,83.819,546.488,81.456,545.017,80.965z"/>
		<path style="fill:#26647F;" d="M528.624,118.944c0.305-1.991-0.112-4.006-1.315-5.638c-1.243-1.686-2.966-2.83-4.611-4.082
			c-1.459-1.111-3.032-2.408-3.447-4.287c-0.35-1.582,0.177-3.314,1.151-4.579c2.745-3.565,7.964-2.425,10.54,0.698
			c0.419,0.508,1.294,0.394,1.713-0.035c0.502-0.513,0.38-1.211-0.035-1.713c-0.975-1.183-2.262-2.132-3.69-2.76
			c0.587-1.501,1.174-3.002,1.761-4.503c0.238-0.609,0.138-1.303-0.488-1.642c-0.521-0.282-1.402-0.125-1.642,0.489
			c-0.646,1.651-1.292,3.303-1.937,4.954c-1.503-0.266-3.057-0.177-4.502,0.354c-3.495,1.286-5.884,5.098-5.306,8.819
			c0.666,4.291,4.838,5.953,7.63,8.673c1.296,1.263,2.081,2.865,1.816,4.706c-0.264,1.838-1.349,3.418-2.98,4.303
			c-1.815,0.985-4.182,1.02-6.059,0.184c-2.306-1.028-3.97-3.082-4.774-5.446c-0.501-1.474-2.825-0.789-2.322,0.691
			c1.045,3.071,3.259,5.685,6.146,6.948c-0.416,1.063-0.831,2.126-1.247,3.189c-0.238,0.609-0.138,1.303,0.489,1.642
			c0.521,0.282,1.402,0.125,1.642-0.488c0.477-1.22,0.954-2.439,1.431-3.659c0.466,0.076,0.942,0.12,1.43,0.127
			C524.144,125.939,527.984,123.124,528.624,118.944z"/>
	</g>
</g>
</svg>
